<?xml version="1.0" encoding="utf-8"?>
<!-- Generator: Adobe Illustrator 18.0.0, SVG Export Plug-In . SVG Version: 6.00 Build 0)  -->
<!DOCTYPE svg PUBLIC "-//W3C//DTD SVG 1.1//EN" "http://www.w3.org/Graphics/SVG/1.1/DTD/svg11.dtd">
<svg version="1.1" id="图层_1" xmlns="http://www.w3.org/2000/svg" xmlns:xlink="http://www.w3.org/1999/xlink" x="0px" y="0px"
	 width="512px" height="512px" viewBox="0 0 512 512" enable-background="new 0 0 512 512" xml:space="preserve">
<g>
	<path d="M212.6,141.4c-2.7-2.8-6.1-4.1-10.4-3.9c-4.2,0.2-7.6,1.4-10.4,3.9c-2.7,2.4-4,5.8-4,10.1l-0.2,31.6h-9
		c-14.2,0-23.5,2.3-27.8,6.9c-4.3,4.6-7.1,9-8.6,13.4c-1.3,4.3-2,10.4-2,18.1v100.9c0,14,2.9,24,8.8,29.9c5.9,6,15.9,9.2,30,9.2
		h44.4c13.7,0,23-2.4,28-7.1c4.8-4.7,8.2-9.6,10.1-14.6c1.9-5.1,2.8-10.8,2.8-17.5v-101c0-6.4-0.6-12.1-1.8-16.8
		c-1.2-4.7-4-9.5-8.3-14.3c-4.3-4.8-14.6-7.2-30.7-7.2h-6.8v-31.6C216.7,147.5,215.4,144.2,212.6,141.4z M168.9,220.9
		c0-3.1,0.6-5.8,1.8-8.2c1.2-2.4,4-3.6,8.3-3.6h8.7v46.4h-18.8L168.9,220.9L168.9,220.9z M187.7,334.1H179c-2.3,0-4.3-0.5-5.9-1.6
		c-1.6-1.1-2.8-2.3-3.3-3.6c-0.6-1.3-0.8-4-0.8-7.8v-38.9h18.8L187.7,334.1z M236,321.1L236,321.1c-0.1,2.9-0.8,5.7-2.3,8.7
		c-1.4,2.9-4.5,4.3-8.9,4.3h-8v-52H236V321.1z M216.7,209h8.4c7.1,0,10.7,4.1,10.7,12.3v34.2h-19.2V209z"/>
	<path d="M279,162.2c-1,3.4-1.4,8.8-1.4,16.2l-0.2,182.1c-0.1,4,1.1,7.4,3.5,10.1c2.4,2.7,5.9,4.1,10.4,4c4.5,0,8-1.4,10.5-4.1
		c2.4-2.7,3.7-6.1,3.7-10.4V181.8c0-5.7,2.7-8.6,8.1-8.6h9.6c3.1,0,4.6,1,4.3,3c-0.1,2-0.6,4.5-1.3,7.2c-0.7,2.9-1.3,5.1-1.7,6.6
		l-7.2,26c-1.6,6.4-2.7,10.2-3.1,11.8c-1.3,4.2-1.8,7.1-1.4,8.8c0.4,1.6,1.7,3.7,4.1,6.4l8.1,9c3.7,4.5,7.6,9.9,11.6,16.5
		c4,6.6,6,13.7,6.1,21.5c0,4.2-1.1,8.4-3.1,12.5c-2,4.1-5.8,6.4-11,6.9c-5.3,0.5-8.7,1-10.2,1.4c-1.6,0.6-3.1,2.4-4.7,5.7
		c-1.4,2.8-2,6.3-1.8,10.4c0.2,4.2,1.9,7.7,4.9,10.6s6.4,4.5,10.2,4.7c2.5,0.2,5.9-0.4,10.1-1.8s8.7-3.7,13.4-6.8
		c4.7-3,9.4-7.7,13.9-14.1c4.5-6.4,7-14.7,7.5-25.1c0.4-8-0.7-15.3-3.1-22.1s-5.1-12.4-8-16.9c-2.9-4.5-6.3-8.9-10.1-13.4
		c-3.9-4.5-6.4-7.4-7.7-8.7c-1.3-1.3-2-2.4-2.2-3.1c-0.2-0.7,0.7-4.2,2.8-10.4c2-6.1,4.6-13.4,7.5-21.6c2.9-8.2,4.8-14.1,6-17.5
		c1.1-3.5,2-6.8,2.8-9.9c0.7-3.5,0.8-6.5,0.5-9c-0.5-2.5-1.9-5.1-4.3-7.6c-2.4-2.5-5.7-4.5-9.5-5.9c-4-1.3-9.6-2-17-2h-18.2
		c-12.8,0-21,1.7-24.7,5.2C282.4,155.4,280,158.9,279,162.2z"/>
	<path d="M256,480c-6.7,0-13.4-1.7-19.4-5.2L76.3,382.2c-11.9-7-19.4-19.8-19.4-33.6V163.4c0-13.8,7.5-26.7,19.4-33.6l160.3-92.6
		c11.9-7,26.9-7,38.8,0l160.3,92.6c11.9,6.9,19.4,19.8,19.4,33.6v153.2c0,5.5-4.5,10-10,10s-10-4.5-10-10V163.4
		c0-6.9-3.6-12.9-9.5-16.3L265.5,54.5c-5.9-3.4-12.9-3.4-18.9,0L86.3,147.1c-5.9,3.4-9.5,9.5-9.5,16.3v185.2
		c0,6.9,3.6,12.9,9.5,16.3l160.3,92.6c5.9,3.4,12.9,3.4,18.9,0l160.3-92.6c4.8-2.8,10.9-1.1,13.6,3.7c2.8,4.8,1.1,10.9-3.7,13.6
		l-160.3,92.6C269.4,478.2,262.7,480,256,480z"/>
</g>
</svg>
