<?xml version="1.0" encoding="utf-8"?>
<!-- Generator: Adobe Illustrator 18.0.0, SVG Export Plug-In . SVG Version: 6.00 Build 0)  -->
<!DOCTYPE svg PUBLIC "-//W3C//DTD SVG 1.1//EN" "http://www.w3.org/Graphics/SVG/1.1/DTD/svg11.dtd">
<svg version="1.1" id="图层_1" xmlns="http://www.w3.org/2000/svg" xmlns:xlink="http://www.w3.org/1999/xlink" x="0px" y="0px"
	 width="512px" height="512px" viewBox="0 0 512 512" enable-background="new 0 0 512 512" xml:space="preserve">
<g>
	<path d="M403.5,480H52c-11,0-20-9-20-20V52c0-11,9-20,20-20h351.5c33.4,0,60.5,27.1,60.5,60.5v91.8c0,5.3-4,10-9.3,10.3
		c-5.8,0.4-10.7-4.2-10.7-10v-82.1c0-27.9-22.6-50.5-50.5-50.5H62c-5.5,0-10,4.5-10,10v388c0,5.5,4.5,10,10,10h331.5
		c27.9,0,50.5-22.6,50.5-50.5v-81.8c0-5.3,4-10,9.3-10.3c5.8-0.4,10.7,4.2,10.7,10v92.1C464,452.9,436.9,480,403.5,480z"/>
	<path d="M470,301.8H290c-25.4,0-46-20.6-46-46s20.6-46,46-46h180c5.5,0,10,4.5,10,10v72C480,297.4,475.5,301.8,470,301.8z
		 M290,229.8c-14.3,0-26,11.7-26,26s11.7,26,26,26h170v-52L290,229.8L290,229.8z"/>
	<circle cx="296.5" cy="256.3" r="15"/>
</g>
</svg>
