<?xml version="1.0" standalone="no"?>
<!DOCTYPE svg PUBLIC "-//W3C//DTD SVG 1.1//EN" "http://www.w3.org/Graphics/SVG/1.1/DTD/svg11.dtd" >
<!--
2015-9-9: Created with FontForge (http://fontforge.org)
-->
<svg xmlns="http://www.w3.org/2000/svg" xmlns:xlink="http://www.w3.org/1999/xlink" version="1.1">
<metadata>
Created by FontForge 20150618 at Wed Sep  9 05:25:45 2015
 By TylerChao
Copyright (c) 2015, TylerChao
</metadata>
<defs>
<font id="icons" horiz-adv-x="512" >
  <font-face 
    font-family="icons"
    font-weight="400"
    font-stretch="normal"
    units-per-em="512"
    panose-1="2 0 5 9 0 0 0 0 0 0"
    ascent="448"
    descent="-64"
    bbox="31.9417 -32.2002 480.1 416.1"
    underline-thickness="25.6"
    underline-position="-51.2"
    unicode-range="U+2801-2830"
  />
    <missing-glyph />
    <glyph glyph-name="icon-arrow-back" unicode="&#x2801;" 
d="M165.2 191.1l204.2 -205.3c1.89941 -1.89941 3 -4.59961 3 -7.39941c0 -2.80078 -1.10059 -5.40039 -3 -7.40039c-1.90039 -1.90039 -4.5 -2.90039 -7.30078 -2.90039c-2.7998 0 -5.39941 1.10059 -7.2998 3l-212.3 213.5c-1.90039 1.90039 -3 4.60059 -3 7.40039
c-0.0996094 2.7002 0.900391 5.40039 2.90039 7.40039l212.399 213.6c1.90039 1.90039 4.5 3 7.2998 3c3.5 0 6.7002 -1.7002 8.60059 -4.59961c2.7998 -4.2002 2 -9.80078 -1.60059 -13.5l-203.899 -205.2z" />
    <glyph glyph-name="icon-arrow-down" unicode="&#x2802;" 
d="M256.9 101.2l205.3 204.2c1.89941 1.89941 4.59961 3 7.39941 3c2.80078 0 5.40039 -1.10059 7.40039 -3c1.90039 -1.90039 2.90039 -4.5 2.90039 -7.30078c0 -2.7998 -1.10059 -5.39941 -3 -7.2998l-213.5 -212.3c-1.90039 -1.90039 -4.60059 -3 -7.40039 -3
c-2.7002 -0.0996094 -5.40039 0.900391 -7.40039 2.90039l-213.6 212.399c-1.90039 1.90039 -3 4.5 -3 7.2998c0 3.5 1.7002 6.7002 4.59961 8.60059c4.2002 2.7998 9.80078 2 13.5 -1.60059l205.2 -203.899z" />
    <glyph glyph-name="icon-arrow-forward" unicode="&#x2803;" 
d="M346.8 191.1l-204.3 -205.3c-1.90039 -1.89941 -3 -4.59961 -3 -7.39941c0 -2.80078 1.09961 -5.40039 3 -7.40039c1.90039 -1.90039 4.5 -2.90039 7.2998 -2.90039s5.40039 1.10059 7.2998 3l212.301 213.601c1.89941 1.89941 3 4.59961 3 7.39941
c0.0996094 2.7002 -0.900391 5.40039 -2.90039 7.40039l-212.3 213.5c-1.90039 1.90039 -4.5 3 -7.2998 3c-3.5 0 -6.7002 -1.7002 -8.60059 -4.59961c-2.7998 -4.2002 -2 -9.80078 1.60059 -13.5l203.899 -205.2z" />
    <glyph glyph-name="icon-arrow-up" unicode="&#x2804;" 
d="M255.1 282.8l-205.3 -204.3c-1.89941 -1.90039 -4.59961 -3 -7.39941 -3c-2.80078 0 -5.40039 1.09961 -7.40039 3c-1.90039 1.90039 -2.90039 4.5 -2.90039 7.2998s1.10059 5.40039 3 7.2998l213.601 212.301c1.89941 1.89941 4.59961 3 7.39941 3
c2.7002 0.0996094 5.40039 -0.900391 7.40039 -2.90039l213.5 -212.3c1.90039 -1.90039 3 -4.5 3 -7.2998c0 -3.5 -1.7002 -6.7002 -4.59961 -8.60059c-4.2002 -2.7998 -9.80078 -2 -13.5 1.60059l-205.2 203.899z" />
    <glyph glyph-name="icon-bag" unicode="&#x2805;" 
d="M256 129.1c-31 0 -60.2998 12.1006 -82.2998 34c-22 21.9004 -34.2998 51.1006 -34.4004 82.2002c0 2.10059 1.60059 10.1006 9.60059 10.1006h0.0996094c9.5 -0.100586 9.7998 -9.40039 9.7998 -9.5c0.100586 -53.5 43.7002 -97 97.1006 -97
c53.3994 0 96.8994 43.5 97.0996 97c0 0.199219 0.799805 9.59961 9.90039 9.59961c8 0 9.7998 -8.09961 9.7998 -10.0996c-0.200195 -31.1006 -12.4004 -60.3008 -34.4004 -82.2002c-22 -22 -51.2998 -34.1006 -82.2998 -34.1006zM71.5996 -31.9004
c-11.8994 0 -21.5996 9.7002 -21.5996 21.6006v408.1c0 10.2002 8 18.2002 18.2002 18.2002h372.1c11.9004 0 21.6006 -9.7002 21.6006 -21.5996v-345.5c0 -5.40039 -4.40039 -9.90039 -9.90039 -9.90039c-5.40039 0 -9.7998 4.40039 -9.7998 9.7998v343.2
c0 2.90039 -1.60059 4.5 -4.5 4.5h-363.601c-2.89941 0 -4.5 -1.59961 -4.5 -4.5v-399.7c0 -3.09961 2.30078 -4.5 4.5 -4.5h377.9c5.40039 0 9.90039 -4.39941 9.90039 -9.89941c0 -5.40039 -4.40039 -9.90039 -9.90039 -9.90039l-380.4 0.0996094v0v0z" />
    <glyph glyph-name="icon-business" unicode="&#x2806;" 
d="M288 125.8c5 0 9 -4 9 -9.09961c0 -5 -4 -9 -9 -9h-23v-107.2c0 -5 -4 -9 -9 -9s-9 4 -9 9v107.3h-23c-5 0 -9 4 -9 9s4 9 9 9h64zM309.6 174.8c86.6006 -23.5996 150.4 -102.8 150.301 -197.1c0 -5.40039 -4.30078 -9.7002 -9.7002 -9.7002
c-5.40039 0 -9.7002 4.2998 -9.7002 9.7002c0 102.1 -79.9004 183.8 -184.5 185.1v0h-0.0996094c-104.601 -1.2998 -184.5 -83 -184.5 -185.1c0 -5.40039 -4.30078 -9.7002 -9.7002 -9.7002c-5.40039 0 -9.7002 4.2998 -9.7002 9.7002c0 94.2998 63.7998 173.6 150.6 197.1
c-43.0996 20.2998 -72.7998 63.7998 -72.7998 114.601c0 69.8994 56.6006 126.6 126.2 126.6c69.7002 0 126 -56.7002 126 -126.6c0 -50.7002 -29.5996 -94.4004 -72.4004 -114.601zM149 289.5c0 -59.2998 48 -107.2 107 -107.2s106.9 47.7998 106.9 107.101
c0 59.2998 -48 107.199 -106.9 107.199c-59 0 -107 -47.7998 -107 -107.1z" />
    <glyph glyph-name="icon-card" unicode="&#x2807;" 
d="M469.3 295.7c5.7998 0.399414 10.7002 -4.2002 10.6006 -10v-220.5c0 -11 -9 -20 -20 -20h-407.9c-11 0 -20 9 -20 20v253.6c0 11 9 20 20 20h417.7c5.2998 0 10 -4 10.2998 -9.2998c0.400391 -5.7998 -4.2002 -10.7002 -10 -10.7002h-408c-5.5 0 -10 -4.5 -10 -10
v-45.0996h408v21.7002c0 5.2998 4 10 9.2998 10.2998zM449.9 65.2002c5.5 0 10 4.5 10.0996 10v128.3h-407.9v-128.3c0 -5.5 4.5 -10 10 -10h387.801zM162.3 98.2998c5 0 9 -4 9 -9s-4 -9 -9 -9h-84.2002c-5 0 -9 4 -9 9s4 9 9 9h84.2002z" />
    <glyph glyph-name="icon-cart" unicode="&#x2808;" 
d="M177 56.2998c-15.2998 0 -27.7998 12.5 -27.7998 27.7998c0 14.2002 11 26.1006 25.0996 27.5l-76.2998 284.4h-46.5c-5.5 0 -10 4.5 -10 10s4.5 10 10 10h54.2998c4.40039 -0.0996094 8.2998 -3.09961 9.2998 -7.2998l79.5 -296.601h215.101l40.0996 149.9h-253.5
c-5.5 0 -10 4.09961 -10.2998 9.40039c-0.0996094 2.7998 0.799805 5.39941 2.7002 7.39941c1.89941 2 4.5 3.10059 7.2002 3.10059h254c11.0996 0 19.5996 -8 20.5996 -19.3008l-0.0996094 -0.399414v0l-43.5 -162.5c-1.2002 -4.40039 -5.10059 -7.5 -9.5 -7.5h-0.200195v0
c-1.10059 0 -8.40039 -0.100586 -62.5 -0.100586h-177.8c-4.5 0 -8.10059 -3.59961 -8.10059 -8c0 -4.39941 3.60059 -8 8 -8h230.601c5.5 0 10 -4.5 10 -10s-4.5 -10 -10 -10h-230.4v0.200195v0zM177 -32c-20.2002 0 -36.7002 16.5 -36.7002 36.7002
s16.5 36.7002 36.7002 36.7002s36.7002 -16.5 36.7002 -36.7002s-16.5 -36.7002 -36.7002 -36.7002zM177 21.5996c-9.2998 0 -16.7998 -7.59961 -16.7998 -16.7998c0 -9.2998 7.59961 -16.7998 16.7998 -16.7998c9.2998 0 16.7998 7.59961 16.7998 16.7998
s-7.5 16.7998 -16.7998 16.7998zM427.1 -32c-20.1992 0 -36.6992 16.5 -36.6992 36.7002s16.5 36.7002 36.6992 36.7002c9.90039 0 19.1006 -3.80078 26.1006 -10.8008c6.89941 -6.89941 10.7002 -16.0996 10.5996 -25.8994c0 -20.2002 -16.5 -36.7002 -36.7002 -36.7002z
M427.1 21.5996c-9.2998 0 -16.7998 -7.59961 -16.7998 -16.7998c0 -9.2998 7.60059 -16.7998 16.7998 -16.7998c4.60059 0 8.80078 1.7998 12 5c3.10059 3.2002 4.90039 7.40039 4.80078 11.7998c0.0996094 9.2002 -7.5 16.7998 -16.8008 16.7998z" />
    <glyph glyph-name="icon-chatbox" unicode="&#x2809;" 
d="M149 299.3c-5.59961 0 -10.0996 4.5 -10 10c0 5.5 4.5 10 10 10h215c5.5 0 10 -4.5 10 -10s-4.5 -10 -10 -10h-215zM149 231.1c-5.59961 0 -10 4.5 -10 10s4.5 10 10 10h215c5.5 0 10 -4.5 10 -10s-4.5 -10 -10 -10h-215zM149 162.9c-5.59961 0 -10.0996 4.5 -10 10
c0 5.5 4.5 10 10 10h184.9c5.5 0 10 -4.5 10 -10s-4.5 -10 -10 -10h-184.9zM158.5 -32c-2.90039 0 -5.5 1.2002 -7.2002 3.40039c-1.7002 1.69922 -2.59961 4.19922 -2.39941 6.89941c0.199219 2.7002 1.39941 5 3.39941 6.60059l118.2 107
c1.09961 1.19922 3.40039 2.39941 5.59961 2.39941h172.7c6.7002 0 11.1006 4.40039 11.1006 10.9004v279.7c0 6.7998 -4.40039 11.0996 -11.1006 11.0996h-385.6c-6.7002 0 -11.2002 -4.5 -11.2002 -11.0996v-279.7c0 -6.60059 4.40039 -10.9004 11.0996 -10.9004h105.9
c5.5 0 10 -4.5 10 -10s-4.5 -10 -10 -10h-117c-4.7002 0 -20 1.40039 -20 19.7998v301.9c0 14.7998 10.4004 20 20.0996 20h408.9c6.09961 0 11.5 -2.09961 15 -5.90039c2.7002 -3 4 -7.19922 4 -13.1992v-303c0 -12.7002 -7.09961 -19.7002 -20 -19.7002h-180.5
l-0.299805 -0.100586l-114.5 -103.6c-1.60059 -1.5 -3.90039 -2.5 -6.2002 -2.5z" />
    <glyph glyph-name="icon-clock" unicode="&#x280a;" 
d="M256 -32c-59.7998 0 -116.1 23.2998 -158.4 65.5996c-42.2998 42.3008 -65.5996 98.6006 -65.5996 158.4c0 58.4004 22.2998 113.7 62.9004 155.7c40.3994 41.8994 94.6992 66.0996 152.699 68.2998c5.5 0 9.90039 -4.40039 10 -9.90039
c0.100586 -3 -0.699219 -5.39941 -2.39941 -7.09961c-2.60059 -2.59961 -6.2998 -2.7998 -7.40039 -2.7998h-0.299805c-52.7002 -2.2002 -102 -24.4004 -138.7 -62.5c-36.7998 -38.2002 -57.0996 -88.5 -57.0996 -141.7c0 -54.5996 21.2002 -105.9 59.7998 -144.4
c38.5996 -38.5996 89.7998 -59.7998 144.4 -59.7998c54.5996 0 105.8 21.2002 144.399 59.7998c38.6006 38.6006 59.7998 89.9004 59.7998 144.4c0 45.0996 -14.3994 87.9004 -41.6992 123.7c-26.4004 34.5996 -63.9004 60.3994 -105.5 72.3994
c-0.100586 0 -7.30078 2.40039 -7.30078 9.60059c0 5.39941 4.30078 9.89941 9.60059 9.89941h0.299805c1.2998 0 3.2002 -0.5 3.2998 -0.5c45.6006 -13.2998 86.7002 -41.5996 115.601 -79.5c29.7998 -39.2998 45.5996 -86.0996 45.5996 -135.6
c0 -59.9004 -23.2998 -116.1 -65.5996 -158.4c-42.3008 -42.2998 -98.6006 -65.5996 -158.4 -65.5996zM360.9 84c-2.7002 0 -5.2002 1 -7 2.90039l-105.5 105.5c-1.90039 1.89941 -2.90039 4.39941 -2.90039 7.09961v149.2c0 5.5 4.40039 10 9.90039 10s10 -4.5 10 -10
v-145.2l102.6 -102.5c3.90039 -3.90039 3.90039 -10.2002 0 -14c-1.90039 -1.90039 -4.40039 -3 -7.09961 -3z" />
    <glyph glyph-name="icon-coin" unicode="&#x280b;" 
d="M255.2 74c-5.2002 0 -9.40039 4.2002 -9.40039 9.5v10.9004l-3.59961 0.399414c-29.2002 3.10059 -51.2002 16.6006 -60.5 37.2998l-0.100586 0.300781c-0.299805 0.599609 -1.7998 3.59961 -1.7998 7.59961c0 9.2002 7.40039 16.5996 16.6006 16.5996
c5.7998 0 11.7998 -1.39941 15.8994 -11.6992c6.60059 -16.1006 23.2002 -25.7002 44.6006 -25.7002c20.1992 0 41.7998 7.2998 41.7998 28.2002c0 21 -23.6006 26.7998 -48.4004 32.8994c-4 1 -8.2002 2 -12.2998 3.10059c-27.9004 7.39941 -55 17.5 -55 51.3994
c0 35.6006 31.9004 51.5 59.0996 54.2998l3.60059 0.400391v11.2998c0 5.2002 4.2002 9.40039 9.39941 9.40039c5.2002 0 9.40039 -4.2002 9.40039 -9.40039v-11.7002l3.5 -0.5c30.5 -3.89941 44.5 -18 50.7002 -29.1992
c2.7998 -5.10059 2.7002 -11.1006 -0.200195 -16.1006c-3 -5.09961 -8.40039 -8.2002 -14.2998 -8.2002c-7.10059 0 -12.6006 3.5 -15 9.7002v0.100586c-7.40039 17.2998 -24 19.5996 -39.4004 19.5996c-24.5996 0 -33.3994 -14.0996 -33.3994 -26.0996
c0 -17.5 11 -20.4004 57.3994 -32.3008l3.60059 -0.899414l1.59961 -0.400391c15.9004 -3.89941 53.0996 -12.8994 53.0996 -52.2998c0 -32.2998 -23.8994 -53.9004 -63.8994 -57.7998l-3.60059 -0.400391v-10.7998c0 -5.2998 -4.19922 -9.5 -9.39941 -9.5zM451.4 301.9
c23.5 -41.9004 33 -91.2002 26.6992 -138.9c-6.39941 -49.2998 -28.3994 -94 -63.6992 -129.3c-42.4004 -42.4004 -98.6006 -65.7002 -158.4 -65.7002s-116.1 23.2998 -158.3 65.5996c-42.4004 42.3008 -65.7002 98.6006 -65.7002 158.4
c0 59.9004 23.2998 116.1 65.7002 158.4c41.2998 41.2998 96.0996 64.5996 154.399 65.5996h3.90039c56.5996 0 110.6 -21.2002 152.1 -59.5996c2 -1.90039 3.10059 -4.30078 3.2002 -7c0.200195 -2.60059 -0.799805 -5.2002 -2.59961 -7.10059
c-1.90039 -2 -4.60059 -3.2002 -7.40039 -3.2002c-2.5 0 -4.89941 1 -6.7002 2.7002c-37.6992 35.1006 -86.7998 54.4004 -138.399 54.4004h-3.90039c-53.2002 -1 -103.1 -22.2002 -140.6 -59.7998c-79.6006 -79.6006 -79.6006 -209.101 0 -288.7
c38.5 -38.5 89.7002 -59.7002 144.3 -59.7002s105.8 21.2002 144.2 59.7002c32.2002 32.0996 52.2002 72.8994 58.0996 117.8c5.7002 43.5996 -3 88.5 -24.3994 126.5c-2.60059 4.7002 -0.900391 10.7998 3.7998 13.5996c1.5 0.900391 3.2002 1.30078 4.89941 1.30078
c3.60059 0 7 -1.90039 8.80078 -5z" />
    <glyph glyph-name="icon-coupon" unicode="&#x280c;" 
d="M41.9004 48.9004c-5.5 0 -9.90039 4.39941 -9.90039 9.7998v67.7998c0 2.90039 1.5 5.7002 3.90039 7.59961c0.0996094 0.100586 10 7.90039 14.0996 12.7002c11 12.7998 16.9004 28.2998 16.9004 44.9004c0 16.5996 -6 32.7998 -17 45.5
c-4.2002 4.7998 -14.3008 12.7002 -14.4004 12.7998c-2.2998 1.90039 -3.5 4.59961 -3.5 7.40039v67.7998c0 5.39941 4.40039 9.7998 9.7998 9.7998h427.601c5.39941 0 9.7998 -4.40039 9.7998 -9.7998c0 -5.40039 -4.40039 -9.7998 -9.7998 -9.7998h-410.301
c-4.09961 0 -7.39941 -3.2002 -7.59961 -7.2002v-45.6006c22.0996 -17.1992 34.7998 -43 34.7998 -70.7998s-12.7002 -53.5 -34.7998 -70.5996v-45.2998c0.0996094 -4.10059 3.5 -7.5 7.59961 -7.5h392.7c4.10059 0 7.40039 3.19922 7.60059 7.19922v45.5
c-22.1006 17.2002 -34.8008 43 -34.8008 70.7002c0 28 12.8008 53.9004 35.2002 71.1006c1.60059 1.19922 5.40039 3.59961 5.5 3.69922c1.5 0.900391 3.2002 1.30078 4.90039 1.30078c3.39941 0 6.7002 -1.80078 8.39941 -4.80078
c2.7002 -4.59961 1.30078 -10.3994 -3.2998 -13.2998c-5.7998 -4 -10.5 -8.09961 -14.2998 -12.5996c-10.7002 -12.7998 -16.7002 -28.9004 -16.7002 -45.6006c0 -16.5 5.7998 -32 16.9004 -45c4.09961 -4.69922 14 -12.5996 14.0996 -12.6992c2.60059 -2 4 -4.60059 4 -7.5
c0 -22.8008 -0.0996094 -66.3008 0 -67.5v0v-0.100586c0 -5.39941 -4.39941 -9.7998 -9.7002 -9.7998h-427.699v-0.0996094zM362.4 262c-5.40039 0 -9.80078 4.40039 -9.80078 9.7998v26.7002c0 5.40039 4.40039 9.7998 9.80078 9.7998
c5.39941 0 9.7998 -4.39941 9.7998 -9.7998v-26.7002c0 -5.39941 -4.40039 -9.7998 -9.7998 -9.7998zM362.4 199.8c-5.40039 0 -9.80078 4.40039 -9.80078 9.7998v26.7002c0 5.40039 4.40039 9.7998 9.80078 9.7998c5.39941 0 9.7998 -4.39941 9.7998 -9.7998v-26.5996
c0 -5.5 -4.40039 -9.90039 -9.7998 -9.90039zM362.4 137.6c-5.40039 0 -9.80078 4.40039 -9.80078 9.80078v26.6992c0 5.40039 4.40039 9.80078 9.80078 9.80078c5.39941 0 9.7998 -4.40039 9.7998 -9.80078v-26.6992c0 -5.40039 -4.40039 -9.80078 -9.7998 -9.80078z
M362.5 75.2998c-5.40039 0 -9.7998 4.40039 -9.7998 9.7998v26.7002c0 5.40039 4.39941 9.7998 9.7998 9.7998c5.2998 0 9.7002 -4.39941 9.7998 -9.7998v-26.7002c0 -5.39941 -4.39941 -9.7998 -9.7998 -9.7998zM279.7 271.1c3.5 -3.5 3.5 -9.19922 0.200195 -12.7998
l-34.5 -40.8994h27.8994c4.90039 0 8.90039 -4 8.90039 -8.90039s-4 -8.90039 -8.90039 -8.90039h-44.5v-17.7998h44.4004c4.89941 0 8.89941 -4 8.89941 -8.89941c0 -4.90039 -4 -8.90039 -8.89941 -8.90039h-44.4004v-44.7002c0 -4.89941 -4 -8.89941 -8.89941 -8.89941
c-4.90039 0 -8.90039 4 -8.90039 8.89941v44.7998h-44.5c-4.90039 0 -8.90039 4 -8.90039 8.90039s4 8.90039 8.90039 8.90039h44.5v17.7998h-44.5c-4.90039 0 -8.90039 4 -8.90039 8.89941c0 4.90039 4 8.90039 8.90039 8.90039h27.9004l-34.5 40.9004
c-3.5 3.5 -3.5 9.09961 0 12.5996s9.09961 3.5 12.5996 0l45 -53.2998h4.59961l45 53.3994c3.5 3.5 9.10059 3.5 12.6006 0z" />
    <glyph glyph-name="icon-discover" unicode="&#x280d;" 
d="M256 -32c-123.5 0 -224 100.5 -224 224s100.5 224 224 224c32.7998 0 64.5 -7 94.2002 -20.7998c0 0 0.700195 -0.299805 1.59961 -0.900391c0.600586 -0.399414 1.2002 -0.899414 1.7002 -1.39941c1.2998 -1.30078 2.7998 -3.90039 2.90039 -7
c0 -2.7002 -1 -5.2002 -2.90039 -7c-1.90039 -1.90039 -4.40039 -2.90039 -7.09961 -2.90039c-2 0 -3.80078 0.5 -5.60059 1.5c-26.7002 12.2998 -55.2998 18.5 -84.7998 18.5c-112.6 0 -204.2 -91.5996 -204.2 -204.2c0 -112.6 91.6006 -204.2 204.2 -204.2
c112.3 0 203.7 91.1006 204.2 203.2h-96.2002c-0.5 -59.0996 -48.7998 -107 -108 -107c-59.5996 0 -108 48.5 -108 108s48.5 108 108 108c9.7998 0 19.5996 -1.2998 29.0996 -4h0.200195c5.2998 -1.5 8.40039 -6.89941 7 -12.2002
c-1.2002 -4.2998 -5.09961 -7.2998 -9.59961 -7.2998c-0.900391 0 -1.7002 0.100586 -2.5 0.299805h-0.200195c-7.90039 2.30078 -16 3.40039 -24.0996 3.40039c-48.6006 0 -88.2002 -39.5996 -88.2002 -88.2002c0 -48.5996 39.5996 -88.2002 88.2002 -88.2002
c48.2998 0 87.6992 39 88.1992 87.2002h-69.0996c-0.5 -10.0996 -8.90039 -18.0996 -19.0996 -18.0996c-10.5 0 -19.1006 8.59961 -19.1006 19.0996s8.60059 19.1006 19.1006 19.1006c4.19922 0 8.19922 -1.30078 11.5 -3.90039l125.8 148.7l0.200195 0.0996094
c1.89941 2.2002 4.59961 3.5 7.39941 3.5c2.5 0 4.90039 -0.899414 6.7002 -2.59961l0.200195 -0.100586l0.200195 -0.199219c22.5 -20.7002 40.2998 -45.3008 52.6992 -73.1006c12.9004 -28.7998 19.4004 -59.5 19.4004 -91.2998c0 -123.5 -100.5 -224 -224 -224z" />
    <glyph glyph-name="icon-edit" unicode="&#x280e;" 
d="M157.5 84.2998c-2.7002 0 -5.2998 1.10059 -7.2002 3c-1.89941 1.90039 -3 4.40039 -3 7.10059c0 2.7998 1.10059 5.39941 3 7.2998l312.3 311.3c1.90039 1.90039 4.5 3 7.2002 3s5.2998 -1.09961 7.2998 -3c4 -4 3.90039 -10.5 -0.0996094 -14.4004l-312.3 -311.3
c-1.90039 -1.89941 -4.5 -3 -7.2002 -3zM53.5996 -31.9004c-11.8994 0 -21.5996 9.60059 -21.5996 21.5v404.801c0 11.8994 9.7002 21.5996 21.5 21.5996h248.8c5.7002 0 10.2998 -4.59961 10.2998 -10.2002c0 -5.59961 -4.59961 -10.2002 -10.2998 -10.2002h-237.7
c-6.5 -0.0996094 -11.7998 -5.2998 -12 -11.7998v-383c0.100586 -6.59961 5.40039 -11.7998 12.1006 -11.8994h350.7c6.7998 0 12.2998 5.5 12.2998 12.1992v211.4c0 5.59961 4.59961 10.2002 10.2998 10.2002c5.59961 0 10.2998 -4.60059 10.4004 -10.2998v-223
c0 -11.8008 -9.7002 -21.5 -21.6006 -21.5l-373.2 0.199219v0z" />
    <glyph glyph-name="icon-eye" unicode="&#x280f;" 
d="M256 110.9c-44.9004 0 -81.4004 36.3994 -81.4004 81.0996s36.6006 81.0996 81.4004 81.0996s81.4004 -36.3994 81.4004 -81.0996s-36.5 -81.0996 -81.4004 -81.0996zM256 253.2c-33.9004 0 -61.4004 -27.5 -61.4004 -61.2002s27.6006 -61.2002 61.4004 -61.2002
c16.5 0 32 6.40039 43.5996 18c11.6006 11.6006 17.9004 26.9004 17.9004 43.2002c0 33.7998 -27.5996 61.2002 -61.5 61.2002zM256.1 66.5c-59.7998 0 -116 13 -158.3 36.5996c-42.3994 23.7002 -65.7998 55.3008 -65.7998 88.9004s23.4004 65.2002 65.7998 88.9004
c42.2998 23.5996 98.5 36.5996 158.2 36.5996c49 0 95.4004 -8.7002 134.4 -25.0996c37.7998 -15.9004 66.0996 -38.5 79.8994 -63.7002c1 -1.60059 2 -3.60059 2 -5.60059c0 -2.69922 -1 -5.19922 -2.89941 -7c-1.90039 -1.89941 -4.30078 -2.89941 -7 -2.89941h-0.100586
c-4.09961 0 -7.09961 2.2002 -9.2998 6.89941c-24.2998 45.7002 -105.3 77.7002 -197 77.7002c-112.6 0 -204.2 -47.5 -204.2 -105.8s91.6006 -105.8 204.2 -105.8c53.2002 0 103.7 10.5996 141.9 29.7998c38 19.0996 60 44.5 62.0996 71.7998v0.100586
c0 5.5 4.5 9.89941 10 9.89941s10 -4.5 10 -9.89941c-1.90039 -32.8008 -26 -63.4004 -68.0996 -86.2002c-42 -22.7002 -97.3008 -35.2002 -155.801 -35.2002z" />
    <glyph glyph-name="icon-forward" unicode="&#x2810;" 
d="M431.5 133.6c5.40039 0 9.7998 -4.2998 9.7998 -9.69922v0v-136.4c0 -10.7998 -8.7998 -19.5 -19.5 -19.5h-370.3c-10.7998 0 -19.5 8.7002 -19.5 19.5v369.9c0 10.7998 8.7002 19.5 19.5 19.5h136.4v0c5.2998 0 9.69922 -4.30078 9.69922 -9.7002
c0 -5.2998 -4.2998 -9.7002 -9.69922 -9.7002v0h-126.7c-5.2998 0 -9.7002 -4.2998 -9.7002 -9.7002v-350.399c0 -5.30078 4.2998 -9.7002 9.7002 -9.7002h350.899c5.30078 0 9.7002 4.2998 9.7002 9.7002v126.5v0c0 5.2998 4.2998 9.69922 9.7002 9.69922zM480 250.5v0
c0 -5.40039 -4.2998 -9.7002 -9.7002 -9.59961c-5.2998 0 -9.7002 4.2998 -9.7002 9.69922v0v132.2l-210.6 -210.3c-3.7998 -3.7998 -10 -3.7998 -13.7998 0s-3.7998 10 0 13.7998l210.6 210.3h-132.399c-5.30078 0 -9.7002 4.30078 -9.7002 9.7002
c0 5.2998 4.2998 9.7002 9.7002 9.7002h146.1c10.7998 0 19.5 -8.7002 19.5 -19.5v-146z" />
    <glyph glyph-name="icon-freeship" unicode="&#x2811;" 
d="M212.6 306.6c2.80078 -2.7998 4.10059 -6.09961 4.10059 -10v-31.5996h6.7998c16.0996 0 26.4004 -2.40039 30.7002 -7.2002s7.09961 -9.59961 8.2998 -14.2998s1.7998 -10.4004 1.7998 -16.7998v-101c0 -6.7002 -0.899414 -12.4004 -2.7998 -17.5
c-1.90039 -5 -5.2998 -9.90039 -10.0996 -14.6006c-5 -4.69922 -14.3008 -7.09961 -28 -7.09961h-44.4004c-14.0996 0 -24.0996 3.2002 -30 9.2002c-5.90039 5.89941 -8.7998 15.8994 -8.7998 29.8994v100.9c0 7.7002 0.700195 13.7998 2 18.0996
c1.5 4.40039 4.2998 8.80078 8.59961 13.4004s13.6006 6.90039 27.7998 6.90039h9l0.200195 31.5996c0 4.2998 1.2998 7.7002 4 10.0996c2.7998 2.5 6.2002 3.7002 10.4004 3.90039c4.2998 0.200195 7.7002 -1.09961 10.3994 -3.90039zM168.9 227.1v0v-34.5996h18.7998
v46.4004h-8.7002c-4.2998 0 -7.09961 -1.2002 -8.2998 -3.60059c-1.2002 -2.39941 -1.7998 -5.09961 -1.7998 -8.2002zM187.7 113.9l0.0996094 51.8994h-18.7998v-38.8994c0 -3.80078 0.200195 -6.5 0.799805 -7.80078c0.5 -1.2998 1.7002 -2.5 3.2998 -3.59961
c1.60059 -1.09961 3.60059 -1.59961 5.90039 -1.59961h8.7002zM236 126.9v39h-19.2002v-52h8c4.40039 0 7.5 1.39941 8.90039 4.2998c1.5 3 2.2002 5.7998 2.2998 8.7002v0zM216.7 239h-0.100586v-46.5h19.2002v34.2002c0 8.2002 -3.59961 12.2998 -10.7002 12.2998
h-8.39941zM279 285.8c1 3.2998 3.40039 6.7998 7.7002 10.7002c3.7002 3.5 11.8994 5.2002 24.7002 5.2002h18.1992c7.40039 0 13 -0.700195 17 -2c3.80078 -1.40039 7.10059 -3.40039 9.5 -5.90039c2.40039 -2.5 3.80078 -5.09961 4.30078 -7.59961
c0.299805 -2.5 0.199219 -5.5 -0.5 -9c-0.800781 -3.10059 -1.7002 -6.40039 -2.80078 -9.90039c-1.19922 -3.39941 -3.09961 -9.2998 -6 -17.5c-2.89941 -8.2002 -5.5 -15.5 -7.5 -21.5996c-2.09961 -6.2002 -3 -9.7002 -2.7998 -10.4004s0.900391 -1.7998 2.2002 -3.09961
s3.7998 -4.2002 7.7002 -8.7002c3.7998 -4.5 7.2002 -8.90039 10.0996 -13.4004c2.90039 -4.5 5.60059 -10.0996 8 -16.8994c2.40039 -6.7998 3.5 -14.1006 3.10059 -22.1006c-0.5 -10.3994 -3 -18.6992 -7.5 -25.0996s-9.2002 -11.0996 -13.9004 -14.0996
c-4.7002 -3.10059 -9.2002 -5.40039 -13.4004 -6.80078c-4.19922 -1.39941 -7.59961 -2 -10.0996 -1.7998c-3.7998 0.200195 -7.2002 1.7998 -10.2002 4.7002s-4.7002 6.40039 -4.89941 10.5996c-0.200195 4.10059 0.399414 7.60059 1.7998 10.4004
c1.59961 3.2998 3.09961 5.09961 4.7002 5.7002c1.5 0.399414 4.89941 0.899414 10.1992 1.39941c5.2002 0.5 9 2.80078 11 6.90039s3.10059 8.2998 3.10059 12.5c-0.100586 7.7998 -2.10059 14.9004 -6.10059 21.5s-7.89941 12 -11.5996 16.5l-8.09961 9
c-2.40039 2.7002 -3.7002 4.7998 -4.10059 6.40039c-0.399414 1.69922 0.100586 4.59961 1.40039 8.7998c0.399414 1.59961 1.5 5.39941 3.09961 11.7998l7.2002 26c0.400391 1.5 1 3.7002 1.7002 6.59961c0.700195 2.7002 1.2002 5.2002 1.2998 7.2002
c0.299805 2 -1.2002 3 -4.2998 3h-9.60059c-5.39941 0 -8.09961 -2.89941 -8.09961 -8.59961v-178.3c0 -4.30078 -1.2998 -7.7002 -3.7002 -10.4004c-2.5 -2.7002 -6 -4.09961 -10.5 -4.09961c-4.5 -0.100586 -8 1.2998 -10.3994 4
c-2.40039 2.69922 -3.60059 6.09961 -3.5 10.0996l0.199219 182.1c0 7.40039 0.400391 12.8008 1.40039 16.2002zM256 -32c-6.7002 0 -13.4004 1.7002 -19.4004 5.2002l-160.3 92.5996c-11.8994 7 -19.3994 19.7998 -19.3994 33.6006v185.199
c0 13.8008 7.5 26.7002 19.3994 33.6006l160.3 92.5996c11.9004 7 26.9004 7 38.8008 0l160.3 -92.5996c11.8994 -6.90039 19.3994 -19.7998 19.3994 -33.6006v-153.199c0 -5.5 -4.5 -10 -10 -10s-10 4.5 -10 10v153.199c0 6.90039 -3.59961 12.9004 -9.5 16.3008
l-160.1 92.5996c-5.90039 3.40039 -12.9004 3.40039 -18.9004 0l-160.3 -92.5996c-5.89941 -3.40039 -9.5 -9.5 -9.5 -16.3008v-185.199c0 -6.90039 3.60059 -12.9004 9.5 -16.3008l160.3 -92.5996c5.90039 -3.40039 12.9004 -3.40039 18.9004 0l160.3 92.5996
c4.7998 2.80078 10.9004 1.10059 13.6006 -3.69922c2.7998 -4.80078 1.09961 -10.9004 -3.7002 -13.6006l-160.3 -92.5996c-6 -3.40039 -12.7002 -5.2002 -19.4004 -5.2002z" />
    <glyph glyph-name="icon-grid" unicode="&#x2812;" 
d="M228 416c10.2998 0 18.7002 -8.40039 18.7002 -18.7002v-177.3c0 -10.2998 -8.40039 -18.7002 -18.7002 -18.7002h-177.3c-10.2998 0 -18.7002 8.40039 -18.7002 18.7002v177.3c0 10.2998 8.40039 18.7002 18.7002 18.7002h177.3zM228.2 229.2v159
c0 5.09961 -4.10059 9.2998 -9.2998 9.2998h-159c-5.10059 0 -9.30078 -4.09961 -9.30078 -9.2998v-159c0 -5.10059 4.10059 -9.2998 9.30078 -9.2998h159c5.09961 0 9.2998 4.09961 9.2998 9.2998zM461.3 416c10.2998 0 18.7002 -8.40039 18.7002 -18.7002v-177.3
c0 -10.2998 -8.40039 -18.7002 -18.7002 -18.7002h-177.3c-10.2998 0 -18.7002 8.40039 -18.7002 18.7002v177.3c0 10.2998 8.40039 18.7002 18.7002 18.7002h177.3zM461.5 229.2v0v159c0 5.09961 -4.09961 9.2998 -9.2998 9.2998h-159
c-5.10059 0 -9.2998 -4.09961 -9.2998 -9.2998v-159c0 -5.10059 4.09961 -9.2998 9.2998 -9.2998h159c5.09961 0 9.2998 4.09961 9.2998 9.2998zM461.3 182.7c10.2998 0 18.7002 -8.40039 18.7002 -18.7002v-177.3c0 -10.2998 -8.40039 -18.7002 -18.7002 -18.7002h-177.3
c-10.2998 0 -18.7002 8.40039 -18.7002 18.7002v177.3c0 10.2998 8.40039 18.7002 18.7002 18.7002h177.3zM461.5 -4.2002v0v159c0 5.10059 -4.09961 9.2998 -9.2998 9.2998h-159c-5.10059 0 -9.2998 -4.09961 -9.2998 -9.2998v-159
c0 -5.09961 4.09961 -9.2998 9.2998 -9.2998h159c5.09961 0 9.2998 4.09961 9.2998 9.2998zM228 182.7c10.2998 0 18.7002 -8.40039 18.7002 -18.7002v-177.3c0 -10.2998 -8.40039 -18.7002 -18.7002 -18.7002h-177.3c-10.2998 0 -18.7002 8.40039 -18.7002 18.7002v177.3
c0 10.2998 8.40039 18.7002 18.7002 18.7002h177.3zM228.2 -4.2002v159c0 5.10059 -4.10059 9.2998 -9.2998 9.2998h-159c-5.10059 0 -9.30078 -4.09961 -9.30078 -9.2998v-159c0 -5.09961 4.10059 -9.2998 9.30078 -9.2998h159c5.09961 0 9.2998 4.09961 9.2998 9.2998z
" />
    <glyph glyph-name="icon-heart" unicode="&#x2813;" 
d="M254.2 4c-1.10059 0 -2.2002 0.200195 -3.2002 0.5c-27.0996 6.90039 -79.2002 37.5 -126.3 82.5c-39.6006 38 -87.9004 98 -92.7002 167.9c-0.0996094 1.39941 0 8.19922 0 8.5c0 64.2998 52.5 116.6 117 116.6c46.5996 0 88.4004 -27.2998 107.1 -69.5996
c18.6006 42.2998 60.4004 69.5996 107 69.5996c64.4004 0 116.9 -52.2998 116.9 -116.6c0 0 0.0996094 -6.90039 -0.200195 -8.5c-2.89941 -43.8008 -23.2998 -88.7002 -60.5 -133.4c-28.5 -34.2998 -67.2002 -67.7998 -106.1 -91.9004
c-1.5 -1.09961 -3.2002 -2.09961 -6.10059 -2.19922h-0.299805c-5.2998 0 -9.5 4.39941 -9.5 9.7998c0 3.7002 2 7 5.2998 8.7002c36.9004 22.7998 73.7002 55 101.101 88.0996c35.5996 43.2002 55.2002 88 56.7002 129.6c0 53.5 -43.6006 97 -97.3008 97
c-24.2998 0 -47.5996 -9 -65.5996 -25.3994c-17.7998 -16.2998 -28.9004 -38.4004 -31.2002 -62.2998l-0.200195 -0.200195v-0.100586c0 -5.39941 -4.5 -9.89941 -9.89941 -10h-0.200195c-5.5 0.100586 -9.90039 4.60059 -9.90039 10v0.100586l-0.199219 0.200195
c-2.30078 23.8994 -13.4004 46 -31.2002 62.2998c-18 16.3994 -41.2002 25.3994 -65.6006 25.3994c-53.5996 0 -97.2998 -43.5 -97.2998 -97c1 -28.5 10.4004 -58.1992 27.7998 -88.1992c14.8008 -25.5 35 -50.7002 60.1006 -74.8008
c43.7002 -42 94.2002 -72.5 116 -76.5996c4.89941 -0.599609 8.59961 -4.90039 8.59961 -9.90039c-0.0996094 -5.59961 -4.59961 -10.0996 -10.0996 -10.0996z" />
    <glyph glyph-name="icon-help" unicode="&#x2814;" 
d="M451.4 301.9c23.5 -41.9004 33 -91.2002 26.6992 -138.9c-6.39941 -49.2998 -28.3994 -94 -63.6992 -129.3c-42.4004 -42.4004 -98.6006 -65.7002 -158.4 -65.7002s-116.1 23.2998 -158.3 65.5996c-42.4004 42.3008 -65.7002 98.6006 -65.7002 158.4
c0 59.9004 23.2998 116.1 65.7002 158.4c41.2998 41.2998 96.0996 64.5996 154.399 65.5996h3.90039c56.5996 0 110.6 -21.2002 152.1 -59.5996c2 -1.90039 3.10059 -4.30078 3.2002 -7c0.200195 -2.60059 -0.799805 -5.2002 -2.59961 -7.10059
c-1.90039 -2 -4.60059 -3.2002 -7.40039 -3.2002c-2.5 0 -4.89941 1 -6.7002 2.7002c-37.6992 35.1006 -86.7998 54.4004 -138.399 54.4004h-3.90039c-53.2002 -1 -103.1 -22.2002 -140.6 -59.7998c-79.6006 -79.6006 -79.6006 -209.101 0 -288.7
c38.5 -38.5 89.7002 -59.7002 144.3 -59.7002s105.8 21.2002 144.2 59.7002c32.2002 32.0996 52.2002 72.8994 58.0996 117.8c5.7002 43.5996 -3 88.5 -24.3994 126.5c-2.60059 4.7002 -0.900391 10.7998 3.7998 13.5996c1.5 0.900391 3.2002 1.30078 4.89941 1.30078
c3.60059 0 7 -1.90039 8.80078 -5zM256 46c-12.7002 0 -23.0996 10.2998 -23.0996 23.0996c0 12.8008 10.2998 23.1006 23.0996 23.1006c12.7002 0 23.0996 -10.2998 23.0996 -23.1006c0 -12.7998 -10.3994 -23.0996 -23.0996 -23.0996zM298.6 203.3
c-13.3994 -13.3994 -27.1992 -27.2002 -27.1992 -39.5996v-26c0 -8.5 -6.90039 -15.4004 -15.4004 -15.4004s-15.4004 6.90039 -15.4004 15.4004v26c0 25.2002 19.2002 44.3994 36.2002 61.3994c12.4004 12.4004 25.2998 25.3008 25.2998 35.6006
c0 25.7002 -20.6992 46.5 -46.1992 46.5c-25.9004 0 -46.2002 -20 -46.2002 -45.5c0 -8.5 -6.90039 -15.4004 -15.4004 -15.4004s-15.3994 6.90039 -15.3994 15.4004c0 42 34.5 76.2998 76.8994 76.2998c42.4004 0 76.9004 -34.7002 76.9004 -77.2998
c0.200195 -23 -17.2002 -40.5 -34.1006 -57.4004z" />
    <glyph glyph-name="icon-home" unicode="&#x2815;" 
d="M318.9 -32c-10.2002 0 -18.7002 8.7002 -18.9004 19.2998v103.2c-0.0996094 4.5 -3.59961 8.09961 -7.90039 8.2002h-71.3994c-4.2998 -0.100586 -7.7998 -3.7002 -7.90039 -8.2002v-102.8c0 -10.7998 -8.5 -19.6006 -18.8994 -19.6006h-71.7002
c-10.4004 0 -18.9004 8.80078 -18.9004 19.6006v185.2h-61.2998c-2.7998 0 -5.2998 1 -7.2002 3c-3.7998 3.89941 -3.7998 10.5996 0 14.5l213.8 222.6l0.200195 0.0996094c1.90039 1.90039 4.2998 2.90039 7 2.90039s5.2002 -1.09961 7 -3l214.3 -223
c3.90039 -4.09961 3.90039 -10.5 0 -14.5996c-1.89941 -1.90039 -4.39941 -3 -7 -3c-2.69922 0 -5.19922 1.09961 -7 3l-207.399 215.8l-190 -197.7h38.7002c10.0996 0 18.3994 -8.2002 18.7998 -18.7998v-177.7c0 -4.59961 3.59961 -8.40039 8 -8.40039h53.7002
c4.39941 0 8 3.80078 8 8.40039v105v0.0996094c1.19922 9.7002 8.89941 16.9004 18.2998 17.1006h90.5c9.5 -0.200195 17.0996 -7.40039 18.2998 -17.1006v-0.0996094v-105c0 -4.59961 3.59961 -8.40039 8 -8.40039h53.7998c4.40039 0 8 3.80078 8 8.40039v158.2
c0 5.7002 4.5 10.3994 10 10.3994s10 -4.59961 10 -10.3994v-167.601c0 -10.7998 -8.5 -19.5996 -18.8994 -19.5996h-72v0z" />
    <glyph glyph-name="icon-list" unicode="&#x2816;" 
d="M110 289.3c-5.7002 0 -10.2998 4.7002 -10.2998 10.2998c0 5.7002 4.7002 10.3008 10.2998 10.3008h359.7c5.7002 0 10.2998 -4.7002 10.2998 -10.3008c0 -5.69922 -4.7002 -10.2998 -10.2998 -10.2998h-359.7zM110 181.2c-5.7002 0 -10.2998 4.7002 -10.2998 10.2998
c0 5.7002 4.7002 10.2998 10.2998 10.2998h359.7c5.7002 0 10.2998 -4.7002 10.2998 -10.2998c0 -5.7002 -4.7002 -10.2998 -10.2998 -10.2998h-359.7zM110 74c-5.7002 0 -10.2998 4.7002 -10.2998 10.2998c0 5.60059 4.7002 10.2998 10.2998 10.2998h359.7
c5.7002 0 10.2998 -4.69922 10.2998 -10.2998c0 -5.59961 -4.7002 -10.2998 -10.2998 -10.2998h-359.7zM32 299.7c0 9.66504 7.83496 17.5 17.5 17.5s17.5 -7.83496 17.5 -17.5s-7.83496 -17.5 -17.5 -17.5s-17.5 7.83496 -17.5 17.5zM32 191.5
c0 9.66504 7.83496 17.5 17.5 17.5s17.5 -7.83496 17.5 -17.5s-7.83496 -17.5 -17.5 -17.5s-17.5 7.83496 -17.5 17.5zM32 84.2998c0 9.66504 7.83496 17.5 17.5 17.5s17.5 -7.83496 17.5 -17.5s-7.83496 -17.5 -17.5 -17.5s-17.5 7.83496 -17.5 17.5z" />
    <glyph glyph-name="icon-location" unicode="&#x2817;" 
d="M255.9 156.6c-42.3008 0 -76.8008 34.5 -76.8008 76.8008c0 42.2998 34.5 76.7998 76.8008 76.7998c42.2998 0 76.7998 -34.5 76.7998 -76.7998c0 -42.3008 -34.5 -76.8008 -76.7998 -76.8008zM255.9 289.9c-31.2002 0 -56.6006 -25.4004 -56.6006 -56.6006
s25.4004 -56.5996 56.6006 -56.5996c31.1992 0 56.5996 25.3994 56.5996 56.5996s-25.4004 56.6006 -56.5996 56.6006zM256.4 -32h-0.5h-0.600586c-2.7002 0 -5.2998 1 -7.09961 2.7998c-1.10059 1.10059 -116.101 116.2 -116.7 116.9
c-40.2998 35.7998 -63.5 86.8994 -63.5 140.399c0.0996094 103.601 84.2998 187.9 187.9 187.9c43.1992 0 84 -14.5 117.899 -42.2002l0.100586 -0.0996094c1 -0.799805 3.2998 -3 3.19922 -7.2998c-0.199219 -5.90039 -4.39941 -10.1006 -10.0996 -10.1006
c-3.40039 0 -7.09961 2.7998 -7.09961 2.90039c-30.1006 23.8994 -66.1006 36.7002 -104.101 36.7002c-92.3994 0 -167.6 -75.3008 -167.6 -167.7c0 -45 18.3994 -85.2002 57.8994 -126.601l101.301 -101.399c2.2998 -2.2002 5.2998 -3.40039 8.5 -3.40039
c3.19922 0 6.2998 1.2002 8.5 3.5l101.1 101.3c38.5 36.9004 58 79.5 58 126.601c0 27.3994 -6.7998 54.5996 -19.5996 78.7002c-0.300781 0.799805 -1 2.89941 -0.900391 4.09961c0 5.7002 4.5 10.2002 10.0996 10.2002h0.200195c6.2002 0 9.2002 -6.2998 9.2002 -6.2998
c14.0996 -27.2002 21.2998 -56.3008 21.2998 -86.7002c0 -53.5 -23 -104.7 -63.2002 -140.3l-0.0996094 -0.100586c-0.700195 -0.700195 -115.7 -115.8 -116.8 -117c-2 -1.7998 -4.5 -2.7998 -7.2998 -2.7998v0z" />
    <glyph glyph-name="icon-lock" unicode="&#x2818;" 
d="M256 57.0996c-12.7998 0 -23.2002 10.4004 -23.2002 23.2002v29.6006c-15.2002 8.59961 -24.5996 25.0996 -24 42.7998c0.900391 24.2998 20.6006 44.2998 44.9004 45.3994c27 1.2002 49.3994 -20.3994 49.3994 -47.1992c0 -17.3008 -9.19922 -32.8008 -24 -41.1006
v-29.5c0.100586 -12.7998 -10.2998 -23.2002 -23.0996 -23.2002zM256 180.1h-1.40039c-15 -0.699219 -27.1992 -13 -27.6992 -28c-0.400391 -12.1992 6.89941 -23.5 18.2998 -28.0996l5.7002 -2.2998v-41.2998c0 -2.80078 2.2998 -5.10059 5.09961 -5.10059
s5.09961 2.2998 5.09961 5.10059v41.2998l5.7002 2.2998c11.1006 4.40039 18.2998 15.0996 18.2998 27c0 16 -13.0996 29.0996 -29.0996 29.0996zM256 287.1c88 0 159.5 -71.6992 159.5 -159.6s-71.5 -159.5 -159.5 -159.5s-159.5 71.5996 -159.7 159.6
c0 52.7002 25.7998 99.5 65.2998 128.601v0.799805v63.5996c0 25.9004 10.8008 51.1006 29.6006 69.1006c18.7002 18 43.2002 27.2002 68.8994 26.0996c50.6006 -2.09961 90.2002 -43.5 90.2002 -94.2002c0 -5.5 -4.5 -10 -10 -10s-10 4.5 -10 10
c0 39.9004 -31.2002 72.5 -71 74.2002c-20.2002 0.900391 -39.3994 -6.39941 -54.2002 -20.5c-14.8994 -14.2002 -23.3994 -34.0996 -23.3994 -54.5996v-52c22.2002 11.7998 47.5 18.3994 74.2998 18.3994zM256 -11.9004c76.9004 0 139.5 62.5 139.5 139.5
c0 76.9004 -62.5996 139.5 -139.5 139.5s-139.5 -62.5996 -139.5 -139.5c0 -76.8994 62.5996 -139.5 139.5 -139.5z" />
    <glyph glyph-name="icon-mail" unicode="&#x2819;" 
d="M53.5 25c-11.9004 0 -21.5 9.59961 -21.5 21.4004v291.199c0 11.8008 9.59961 21.4004 21.5 21.4004h416.3c5.60059 0 10.2002 -4.59961 10.2002 -10.2002c0 -5.59961 -4.59961 -10.2002 -10.2002 -10.2002h-405.3c-6.2002 0 -11.2998 -4.69922 -12 -10.8994v-0.100586
v-281.199l1 -1h393.8c6.7998 0 12.2998 5.5 12.2998 12.1992v204.4l-1.5 0.900391l-197.199 -113.301c-0.600586 -0.399414 -2.30078 -1.2998 -5.2002 -1.2998c-2 0 -3.7998 0.400391 -5.2998 1.2998l-160.101 92c-4.89941 2.80078 -6.59961 9.10059 -3.7002 13.9004
c1.80078 3.09961 5.2002 5.09961 8.90039 5.09961c1.7998 0 3.5 -0.5 5.09961 -1.39941l154.601 -88.7998h1l206.8 118.899c2.5 0.900391 4.90039 1.40039 7 1.40039c6 0 10 -4 10 -10.2002v-234.1c0 -11.8008 -9.59961 -21.4004 -21.5 -21.4004h-405z" />
    <glyph glyph-name="icon-menu" unicode="&#x281a;" 
d="M32 336v32h448v-32h-448zM32 16v32h448v-32h-448zM32 176v32h448v-32h-448z" />
    <glyph glyph-name="icon-mobile" unicode="&#x281b;" 
d="M380.3 382.9c5.5 0 10 -4.5 10.1006 -10v-375c0 -16.6006 -13.6006 -30.1006 -30.1006 -30.1006h-208.5c-16.5996 0 -30.0996 13.6006 -30.0996 30.1006v387.899c0 16.6006 13.5996 30.1006 30.0996 30.1006h205.4c5.5 0 10 -4.5 10 -10s-4.5 -10 -10 -10h-205.5
c-5.5 0 -10 -4.5 -10 -10v-40.1006h228.6v27.1006c0 5.5 4.5 10 10 10zM370.3 325.8h-228.6v-234.6h228.6v234.6zM360.2 -12c5.5 0 10.0996 4.59961 10.0996 10v73.0996h-228.5v-73.0996c0 -5.5 4.5 -10 10 -10h208.4zM230.9 377.9h50.0996c3.90039 0 7 -3.10059 7 -7
c0 -3.90039 -3.09961 -7 -7 -7h-50.0996c-3.90039 0 -7 3.09961 -7 7c0 3.89941 3.09961 7 7 7zM256 60c16.7002 0 30.4004 -13.5996 30.4004 -30.4004c0 -16.7998 -13.6006 -30.3994 -30.4004 -30.3994s-30.4004 13.7002 -30.4004 30.3994
c0 16.8008 13.7002 30.4004 30.4004 30.4004zM256 17.2998c6.7998 0 12.2998 5.5 12.2998 12.2998c0 6.80078 -5.5 12.3008 -12.2998 12.3008s-12.2998 -5.5 -12.2998 -12.3008c0 -6.7998 5.5 -12.2998 12.2998 -12.2998z" />
    <glyph glyph-name="icon-more" unicode="&#x281c;" 
d="M90.9004 135c-33 -1 -59.9004 25.9004 -58.9004 58.9004c1 29.7998 25.2998 54.0996 55.0996 55.0996c32.9004 1.09961 59.9004 -25.9004 58.8008 -58.7998c-0.900391 -29.9004 -25.2002 -54.2002 -55 -55.2002zM86.2998 228.2
c-17.8994 -1.2998 -32.3994 -15.7002 -33.5996 -33.6006c-1.40039 -21.1992 15.3994 -38.7998 36.2002 -38.7998c19.8994 0 36.3994 16.2002 36.3994 36.2998c0 20.8008 -17.7002 37.6006 -39 36.1006zM257.9 135c-32.9004 -1.09961 -59.9004 25.9004 -58.8008 58.7998
c1 29.7998 25.3008 54.1006 55.1006 55.1006c32.8994 1.09961 59.8994 -25.9004 58.7998 -58.8008c-1 -29.7998 -25.2998 -54.0996 -55.0996 -55.0996zM258.4 228.2c-21.9004 1.39941 -39.9004 -16.7002 -38.5 -38.5c1.09961 -18.1006 15.7998 -32.7002 33.7998 -33.7998
c21.8994 -1.40039 39.8994 16.6992 38.5 38.5c-1.10059 18 -15.7998 32.6992 -33.7998 33.7998zM424.9 135c-32.9004 -1.09961 -59.9004 25.9004 -58.8008 58.7998c1 29.7998 25.3008 54.1006 55.1006 55.1006c32.8994 1.09961 59.8994 -25.9004 58.7998 -58.8008
c-1 -29.7998 -25.2998 -54.0996 -55.0996 -55.0996zM427 228c-23.2002 2.5 -42.5 -16.9004 -40.0996 -40c1.7998 -16.7002 15.1992 -30.2002 31.8994 -32.0996c23 -2.60059 42.7002 16.6992 40.2998 39.7998c-1.69922 17 -15.1992 30.5 -32.0996 32.2998z" />
    <glyph glyph-name="icon-order" unicode="&#x281d;" 
d="M89.5 -32c-10.2002 0 -18.5996 8.5 -18.5996 18.7998v410.4c0 10.3994 8.39941 18.7998 18.5996 18.7998h219.5h0.400391c2.5 0 5.09961 -1.09961 6.89941 -2.90039l121.8 -123.899c1.40039 -1.2998 2.90039 -4.10059 2.90039 -7.40039v-242
c0 -5.5 -4.2998 -10 -9.7002 -10c-2.59961 0 -5.2002 1 -6.89941 2.90039c-1.90039 1.89941 -2.80078 4.39941 -2.80078 7.09961v214.601c0 4.39941 -3.19922 7.69922 -7.5 7.69922h-105.3c-5.39941 0 -9.7998 4.80078 -9.7998 10.2002v0.100586v0.599609v115.5
c0 4.40039 -3.59961 7.59961 -7.90039 7.59961h-192.8c-4.2998 0 -7.7002 -3.19922 -7.7002 -7.59961v-392.6c0 -4.40039 3.40039 -7.90039 7.7002 -7.90039h332.8c5.40039 0 9.80078 -4.5 9.80078 -10s-4.40039 -10 -9.80078 -10h-341.6zM416.7 281.1l-99.1006 101v-101
h99.1006zM141.9 191c-5.40039 0 -9.7002 4.09961 -9.7002 9.5s4.2998 9.5 9.7002 9.5h227.199c5.40039 0 9.7002 -4.09961 9.7002 -9.5s-4.2998 -9.5 -9.7002 -9.5h-227.199zM141.9 128c-5.40039 0 -9.7002 4.59961 -9.7002 10s4.2998 10 9.7002 10h227.199
c5.40039 0 9.7002 -4.59961 9.7002 -10s-4.2998 -10 -9.7002 -10h-227.199zM141.9 66c-5.40039 0 -9.7002 4.59961 -9.7002 10s4.2998 10 9.7002 10h227.199c2.60059 0 5.2002 -1.2998 6.90039 -3.2002c1.7998 -1.89941 2.7002 -4.39941 2.7002 -6.89941
c0 -5.40039 -4.2998 -9.90039 -9.7002 -9.90039h-227.1v0z" />
    <glyph glyph-name="icon-package" unicode="&#x281e;" 
d="M216.6 131.8c-4.09961 1.7002 -6.59961 5.2002 -6.59961 9v96.2002h-158v-239c0 -5.5 4.5 -10 10 -10h388c5.5 0 10 4.5 10 10v200.7c0 5.2998 4 10 9.2998 10.2998c5.7998 0.400391 10.7002 -4.2002 10.7002 -10v-211c0 -11 -9 -20 -20 -20h-408c-11 0 -20 9 -20 20v408
c0 11 9 20 20 20h408c11 0 20 -9 20 -20v-139c0 -11 -9 -20 -20 -20h-158.1v-96.0996c0 -3.90039 -2.60059 -7.40039 -6.60059 -9c-1.5 -0.700195 -3.2002 -1 -4.89941 -1c-2.60059 0 -5.2002 0.799805 -7.40039 2.19922l-27 18.9004l-27 -18.9004
c-3.5 -2.39941 -8.2998 -2.89941 -12.4004 -1.2998zM460 386c0 5.5 -4.5 10 -10 10h-148.1v-139h148.1c5.5 0 10 4.5 10 10v119zM278.7 396h-45.4004v-234.1l15.4004 10.6992c2.09961 1.60059 4.7002 2.30078 7.2998 2.30078s5.2002 -0.700195 7.2998 -2.2002
l15.4004 -10.7002v234zM52 257h158v139h-148c-5.5 0 -10 -4.5 -10 -10v-129zM285.5 272zM226.5 272zM285.5 257zM226.5 257zM285.5 244zM430.5 8.5h-82c-5.5 0 -10 4.5 -10 10s4.5 10 10 10h82c5.5 0 10 -4.5 10 -10s-4.5 -10 -10 -10z" />
    <glyph glyph-name="icon-paper" unicode="&#x281f;" 
d="M431.2 416c5.39941 0 9.7998 -4.5 9.7998 -10s-4.40039 -10 -9.7998 -10h-332.9c-4.2998 0 -7.7002 -3.5 -7.7002 -7.90039v-392.6c0 -4.40039 3.40039 -7.59961 7.7002 -7.59961h192.8c4.30078 0 7.90039 3.19922 7.90039 7.59961v115.5v0.599609v0.100586
c0 5.39941 4.40039 10.2002 9.7998 10.2002h105.3c4.30078 0 7.5 3.2998 7.5 7.69922v214.601c0 2.7002 0.900391 5.2002 2.80078 7.09961c1.69922 1.90039 4.2998 2.90039 6.89941 2.90039c5.40039 0 9.7002 -4.5 9.7002 -10v-242
c0 -3.2998 -1.5 -6.10059 -2.90039 -7.40039l-121.8 -123.899c-1.7998 -1.80078 -4.39941 -2.90039 -6.89941 -2.90039h-0.400391h-219.5c-10.2002 0 -18.5996 8.40039 -18.5996 18.7998v410.4c0 10.2998 8.39941 18.7998 18.5996 18.7998h341.7zM317.5 102.9v-101
l99.0996 101h-99.0996zM369 168.3c5.40039 0 9.7002 -4.09961 9.7002 -9.5c0 -5.39941 -4.2998 -9.5 -9.7002 -9.5h-227.1c-5.40039 0 -9.7002 4.10059 -9.7002 9.5c0 5.40039 4.2998 9.5 9.7002 9.5h227.1zM245.8 354.3c5.40039 0 9.7002 -4.09961 9.7002 -9.5
c0 -5.39941 -4.2998 -9.5 -9.7002 -9.5h-103.899c-5.40039 0 -9.7002 4.10059 -9.7002 9.5c0 5.40039 4.2998 9.5 9.7002 9.5h103.899zM369.2 231.3c5.39941 0 9.7002 -4.59961 9.7002 -10c0 -5.39941 -4.30078 -10 -9.7002 -10h-227.3
c-5.40039 0 -9.7002 4.60059 -9.7002 10c0 5.40039 4.2998 10 9.7002 10h227.3zM141.9 293.3h227.1c5.40039 0 9.7002 -4.5 9.7002 -9.89941c0 -2.5 -0.900391 -5 -2.7002 -6.90039c-1.7002 -1.90039 -4.2998 -3.2002 -6.90039 -3.2002h-227.199
c-5.40039 0 -9.7002 4.60059 -9.7002 10c0 5.40039 4.39941 10 9.7002 10v0z" />
    <glyph glyph-name="icon-reduce" unicode="&#x2820;" 
d="M53.4004 -32c-11.8008 0 -21.4004 9.59961 -21.4004 21.2998v405.4c0 11.7002 9.59961 21.2998 21.2998 21.2998h416.5c5.5 0 10.1006 -4.5 10.1006 -10s-4.5 -10 -10.1006 -10h-405.5c-6.59961 -0.200195 -11.8994 -5.5 -12.2002 -12.0996v-383.601
c0.200195 -6.7002 5.60059 -12.0996 12.3008 -12.2002h382.899c6.90039 0 12.5 5.60059 12.5 12.5v336.7c0 5.5 4.5 10 10.1006 10c5.5 0 10.0996 -4.5 10.0996 -10v-348c0 -11.7002 -9.59961 -21.2998 -21.4004 -21.2998h-405.199zM268.1 203v0h-28.7998
c-9 0 -8.59961 16.5996 0 16.5996c4.10059 1.2002 10.2002 0 14.4004 0c4.5 0 9.89941 0.800781 14.3994 0c10.9004 0 10.6006 -16.5996 0 -16.5996zM237.7 128.3c-2 2.2002 1.2998 -1.39941 0 0c-7 7.7002 -5.10059 19.6006 -5.10059 29.2998
c0 8.7002 -1.69922 20.1006 5 26.8008c5.60059 5.2998 32.6006 5.39941 38.4004 0.399414c7.5 -6.5 5.40039 -19.7998 5.40039 -28.7998c0 -7.40039 2 -20.7002 -3.60059 -26.2998c-5.7998 -6.2002 -18 -4.5 -25.7998 -4.5c-4.09961 0 -11.0996 -0.299805 -14.2998 3.09961z
M247.9 163.4v0c0 -8.60059 -2.90039 -22.9004 9.69922 -22.4004c2.80078 0 7.5 1.2002 7.5 9.5v12.4004c0 5 -2.69922 7.7998 -7.5 7.7998h-1.7998c-2.09961 0 -4.39941 -0.299805 -6 -1.90039c-1.2998 -1.2002 -1.89941 -3.09961 -1.89941 -5.39941zM162.9 241.7
c-5.10059 5.09961 5.7998 -5.7002 0 0c-7.5 7.5 -26 20.8994 -14.2002 31.7998c9.89941 9.5 19.5996 -2.09961 26.5 -9.2002c7.59961 -7.7002 21.5 -22.0996 6.7002 -30.3994c-8.30078 -4.60059 -13.7002 2.59961 -19 7.7998zM325 278.3c-5.59961 4.60059 7.40039 -6 0 0
c-6.7002 5.60059 -21.0996 18.4004 -7.2002 25.7998c8.90039 4.7002 18.7002 -5.19922 24.6006 -10.5c7.09961 -6.5 13.8994 -19.3994 0.299805 -23.3994c-7.10059 -2.10059 -12.7002 4 -17.7002 8.09961zM142.6 127.1c-2.89941 2.10059 3.10059 -2.2998 0 0
c-13.7998 10 11.1006 37.1006 15.6006 46.2002c5.7002 11.9004 7.59961 41.7002 27.2998 31.9004c14.5 -6.90039 -4.5 -40.4004 -8.5 -49.2002c-6 -13 -15.7998 -42.7002 -34.4004 -28.9004zM259.3 77.9004c-3.7002 0.299805 0.900391 -0.100586 0 0
c-9.5 0.799805 -13 15.5 -6.59961 21.7998c6 6 17.2002 8.5 24.5 12.8994c7.7002 4.5 14.2002 9.80078 20 16.6006c5.7998 6.7002 5.2998 6 2.59961 15.0996c-9.2002 31.4004 -14.3994 63.2998 -17.7998 95.7002h-30.2998c-6.10059 0 -12.4004 0.400391 -18.5 -0.200195
c-11.1006 -1.09961 -10.7002 -11.0996 -10.7002 -19.8994c0 -24.4004 0.200195 -49.4004 -3.2998 -73.6006c-2 -14.2002 -5.40039 -29 -14.1006 -40.7998c-7 -9.5 -18.5 -23.9004 -30.2998 -27.0996c-12.5 -3.40039 -19.2998 12.8994 -12.3994 21.8994
c4.59961 6.10059 13.2998 10.1006 18.6992 15.7002c19 19.5 17.6006 54.0996 18.3008 79.2002c0.399414 14.5 -0.700195 29.0996 0.199219 43.5c1 15.3994 7.40039 22.2002 22.6006 23.8994c5.2998 0.600586 10.7998 0.400391 16.0996 0.400391h41
c-1 10.7998 -4.2998 24.5996 -1.5 35.2002c2.7998 10.5996 19.5 12 23.6006 1.7002c4.09961 -10.4004 1.69922 -25.7002 2.5 -36.9004c10.0996 0 20.0996 -0.0996094 30.1992 -0.0996094c9.60059 -0.100586 28 3 28.5 -11.5c1 -14.7002 -19.7998 -11.5 -28.6992 -11.5
h-28.4004c2.40039 -27.2002 7.2002 -53.3008 13.5 -79.8008c6.7002 16 10.2002 31.6006 15 48.1006c2.7002 9.2998 6.7998 11.7002 16 8.59961c6.7998 -2.39941 8.90039 -6.59961 7.7998 -14c-2.5 -16.8994 -9.7002 -34.7998 -17.0996 -50.2002
c-2.5 -5.19922 -10.4004 -14.7998 -10.6006 -20.1992c-0.199219 -4.2002 6.5 -15.6006 10.9004 -17.1006c11.9004 -4.09961 7.5 32.2002 27.9004 15c11.0996 -9.39941 -1.80078 -32.2002 -6.5 -42.0996c-13.3008 -28.2998 -39.4004 10.2002 -48.7002 24.2998
c-9 -9.09961 -19 -17.2002 -29.6006 -24.4004c-7.39941 -5.09961 -15.1992 -11.2998 -24.7998 -10.1992z" />
    <glyph glyph-name="icon-refund" unicode="&#x2821;" 
d="M343.9 297.7c5.09961 -5.10059 5.09961 -13.2998 -0.100586 -18.2002l-50.5996 -60h40.7998c7.2998 0 13.0996 -6 13.0996 -13.0996c0 -7.30078 -6 -13.1006 -13.0996 -13.1006h-65.2002v-26.0996h65.2002c7.2998 0 13.0996 -5.90039 13.0996 -13.1006
c0 -7.2998 -6 -13.0996 -13.0996 -13.0996h-65.0996v-65.7998c0 -7.2998 -6 -13.1006 -13.1006 -13.1006c-7.2998 0 -13.0996 6 -13.0996 13.1006v65.5h-65.1006c-7.2998 0 -13.0996 5.89941 -13.0996 13.0996c0 7.2998 6 13.1006 13.0996 13.1006h65.1006v26.0996h-65.2002
c-7.2998 0 -13.0996 5.7998 -13.0996 13.0996c0 7.30078 6 13.1006 13.0996 13.1006h41l-50.5996 60c-4.80078 5.09961 -4.80078 13.5 0.299805 18.5996c5.09961 5.10059 13.3994 5.10059 18.5 0l66 -78.2998h6.7002l66 78.2002c5.09961 5.09961 13.3994 5.09961 18.5 0z
M414.4 350.4c42.2998 -42.3008 65.5996 -98.6006 65.5996 -158.4s-23.2998 -116.1 -65.5996 -158.4c-42.3008 -42.2998 -98.6006 -65.5996 -158.4 -65.5996s-116.1 23.4004 -158.4 65.5996c-42.2998 42.3008 -65.5996 98.6006 -65.5996 158.4
c0 5.5 4.40039 10.0996 10 10.0996s10.0996 -4.59961 10.0996 -10.0996c0 -112.5 91.4004 -203.9 203.9 -203.9s204 91.4004 204 203.9s-91.4004 203.9 -203.9 203.9c-35.5 0 -70.2998 -9.30078 -100.899 -26.7002c-27.7998 -15.9004 -51.7998 -38.2002 -69.4004 -65
h45.2998c5.10059 0 9.10059 -4 9.10059 -9.10059c0 -5.09961 -4.10059 -9.09961 -9.10059 -9.09961h-66.3994c-5.10059 0 -9.10059 4.09961 -9.10059 9.09961v66.4004c0 5.09961 4 9.09961 9.10059 9.09961c5.09961 0 9.09961 -4.09961 9.09961 -9.09961v-39.2002
c18.7998 26.2002 43.2998 48.4004 71.4004 64.4004c33.5996 19.0996 71.7998 29.2998 110.8 29.2998c59.7998 0 116.1 -23.4004 158.4 -65.5996z" />
    <glyph glyph-name="icon-return" unicode="&#x2822;" 
d="M255.9 -32c-11.8008 0 -23.3008 3 -33.4004 8.7998l-80.5996 46.7002c-59 34.2002 -89.9004 112.1 -89.9004 171.4v133.8c0 19.7998 13.2998 37.2998 32.4004 42.7002l153.8 42.2998c5.7998 1.5 11.7002 2.2998 17.7002 2.2998c6.09961 0 12 -0.799805 17.6992 -2.2998
l154.101 -42.2998c19.0996 -5.30078 32.3994 -22.8008 32.2998 -42.6006v-133.8c0 -51.2998 -22 -107.8 -56 -144.2c-1.90039 -2 -4.59961 -3.2002 -7.40039 -3.2002c-2.5 0 -5.09961 1 -6.89941 2.7002c-2 1.90039 -3.10059 4.40039 -3.2002 7.10059
c-0.0996094 2.69922 0.900391 5.2998 2.7998 7.19922c30.7002 32.6006 50.5 83.7002 50.5 130.101v134c0 10.5996 -7.2002 20 -17.5996 22.7998l-91.5 25.0996l-62.4004 17.2002c-4.09961 1.2002 -8.09961 1.7002 -12.2998 1.7002s-8.2002 -0.599609 -12.2998 -1.7002
l-153.9 -42.2998c-10.2998 -2.90039 -17.5996 -12.2002 -17.5996 -22.7998v-133.9c0 -29 7.7002 -60.2998 21.5996 -88c14.7998 -29.3994 34.9004 -52.2002 58.1006 -65.7002l80.6992 -46.6992c6.90039 -4 14.9004 -6.10059 23.2002 -6.10059
s16.2998 2.10059 23.2002 6.10059l58.0996 33.5c1.5 0.899414 3.2002 1.2998 5.10059 1.2998c3.59961 0 7 -2 8.89941 -5.10059c1.40039 -2.39941 1.7002 -5.09961 1 -7.69922c-0.699219 -2.60059 -2.39941 -4.7002 -4.7998 -6.2002l-58.0996 -33.5
c-10 -5.7002 -21.5 -8.7002 -33.2998 -8.7002zM356.8 126.7c2.2002 -1.5 -2.39941 1.7002 0 0c2.2002 -1.5 3.2002 -3.90039 2.7998 -7.2998c0 -3.40039 -1.09961 -5.90039 -3.19922 -7.7002c-2.60059 -2.10059 -7.10059 -2.5 -10.2002 -3
c-10.2002 -1.7002 -20.7002 -2.40039 -31.1006 -3.10059c-24 -1.59961 -48.7998 -2.19922 -72.6992 1c-15.3008 2.10059 -27.9004 8.30078 -40.3008 17.1006c-5.59961 4 -11.8994 4.7998 -17.7998 1.09961c-6.39941 -4 -15.7002 -17.5 -23.8994 -11.0996
c-3.40039 2.59961 -5.2002 5.09961 -5.30078 7.39941c-0.0996094 2.7002 0 4.7002 0.600586 6.2002c3.59961 9.5 17.5996 9.60059 22.5996 18c5.2998 8.10059 2.2998 24.4004 2.2998 33.4004c0 7.5 2.7002 23.8994 -2.89941 30.2002
c-6.90039 7.5 -25.2002 -5.40039 -25.7998 11.1992c-0.100586 2.90039 0.799805 5.40039 2.5 7.40039c3.89941 4.59961 12.8994 2.90039 18.1992 2.90039c7.7002 0 16.2002 -0.200195 22.4004 -5.40039c8.7002 -7.2998 5.5 -28.2998 5.5 -38.4004v-34.3994
c0 -11.2002 22.5 -19.2998 30.7998 -22.2998c13.5 -4.80078 27.7002 -6.2002 41.9004 -6.80078c17 -0.699219 34.0996 -0.199219 50.8994 2.30078c9.2002 1.39941 24 7.5 32.7002 1.2998zM201.5 256c-2.7002 -2.2002 2.5 2.09961 0 0
c-2.7002 -2.2002 -5.2998 -3.2998 -8.09961 -3.09961l0.199219 0.0996094c-8 0 -11 8.09961 -15.1992 13.4004c-3.90039 5 -15.5 12.5996 -15.5 19.7998c-0.5 6.39941 5.39941 12.2002 11.6992 12.2002c5.60059 0 9.80078 -3.90039 13.5 -7.5
c6.90039 -6.80078 24.8008 -25.3008 13.4004 -34.9004zM226 156.4c2 9.19922 1.40039 18.8994 1.40039 28.1992c0 14.1006 -0.100586 28.3008 -0.100586 42.4004c0 13.9004 -0.0996094 27.7002 -0.0996094 41.5996c0 9.2002 -2 22.5 5.5 29
c10.5 9.10059 37.7998 4.90039 50.7998 4.90039c11 0 36.5 3.7998 44.5 -4.90039c7.7002 -8.5 4.59961 -28.3994 4.59961 -39.1992c0 -10.9004 3 -31 -4.2998 -39.7002c-7.2998 -8.2002 -31.8994 -4.7002 -42.5 -4.7002h-35.7002l-2.2998 -2.2998l0.100586 -47l3.5 -1.90039
c7 4.7002 19.5996 17.4004 28.6992 9.7002c13.9004 -11.7002 -37.6992 -35.7002 -47.3994 -35.7002c-2.40039 0 -3.60059 0 -7.2998 2.90039c-4 4.7998 -1.30078 11.5996 0.599609 16.7002zM247.8 273.7v0l-0.0996094 -5.2002l2.2998 -2.2998h59.7002l2.2998 2.2998
c0 3.2998 0.700195 7.7998 -0.700195 10.9004c-0.5 1.2998 -1.39941 2.2998 -2.5 3.19922c-4.7002 3.7002 -19.2998 1.40039 -24.7998 1.40039h-24.5996v-0.200195c-5.40039 0 -8.30078 -0.700195 -9.80078 -2.39941c-1.19922 -1.5 -1.7998 -4 -1.7998 -7.7002zM247.8 246.5
v0v-11.9004l2.2998 -2.2998h30.3008c5.69922 0 25.7998 -2.89941 29.8994 2.7002c2.40039 3.2002 1.7998 7.7998 1.7998 11.5996l-2.2998 2.30078h-59.7002zM339.4 199.8c-0.400391 -2.7002 0.299805 2.10059 0 0c-0.400391 -2.7002 -3.80078 -8.2002 -16.8008 -18.7998
v-3.5c6.90039 -5.7002 20.5 -14.5 21 -24.9004c0 -2 -1.09961 -4.5 -3.09961 -7.09961c-9.40039 -12.5 -24.5 8.90039 -31 15c-7.7998 7.2998 -16.0996 14.0996 -24.5 20.7002c-6 4.7002 -13.5996 7.89941 -18.7002 13.7002c-2.89941 3.39941 -2.2002 8.5 1.10059 11.2998
c2 1.7002 4.5 2.5 7.89941 2.5c10.7998 -0.400391 20.9004 -10.7002 28.7998 -17l3.10059 0.0996094c6.2002 6.2002 21.7998 26.6006 30.3994 14.6006c1.60059 -2.30078 2.10059 -4.5 1.80078 -6.60059z" />
    <glyph glyph-name="icon-saleoff" unicode="&#x2823;" 
d="M315.7 81.4004c-2.10059 2.2998 -3.10059 4.69922 -2.7998 7.5v117.699h-40.3008v-2c-0.0996094 -7.89941 -0.399414 -16.5996 -0.599609 -26.1992c-0.200195 -9.5 -1.2002 -19.4004 -2.7002 -29.7002c-1.5 -10.2002 -3.7998 -19.2002 -6.7998 -27
c-2.90039 -7.7998 -7 -16 -11.9004 -24.5c-4.59961 -7.90039 -9.69922 -12.1006 -15.0996 -12.5c-0.700195 -0.100586 -1.2998 -0.100586 -2 -0.100586c-4.7002 0 -8.09961 1.30078 -10.7002 3.80078c-3 2.89941 -4.2998 6.09961 -4.2002 9.89941
c0 1.90039 0.5 3.7998 1.5 5.60059c1.10059 2 2.80078 4.2998 5.2002 7c2.5 2.89941 4.90039 5.7998 7.2002 8.7998c2.40039 3.09961 4.7998 7.89941 7.2998 14.7002c2.5 6.69922 4.2998 15.1992 5.40039 25.5996c1.09961 10.2002 1.7002 25.2998 1.7998 44.7002v45.5996
c0 6.2998 0.5 12.1006 1.40039 17.5c0.899414 5 2.7998 9.2998 5.69922 12.7002c2.7002 3.2998 6.40039 5.59961 10.8008 6.7002c4.69922 1.2002 10.5 2.2002 17.3994 2.7998c7 0.599609 16.2002 1.59961 27.1006 2.7998c11 1.2998 20.7998 2.7998 29.0996 4.7002
c8.09961 1.7998 13.2002 2.90039 15.2002 3.2002c0.700195 0.0996094 1.5 0.200195 2.2002 0.200195c1 0 2.09961 -0.100586 3.09961 -0.300781c2.5 -0.599609 5.2002 -2.5 8 -5.39941c2.7002 -2.90039 3.90039 -6.2998 3.7002 -10.4004
c-0.299805 -4.5 -2 -7.2998 -5.2998 -8.5c-3.90039 -1.5 -7.40039 -2.39941 -10.5 -2.7998c-3.2002 -0.400391 -13.3008 -1.5 -30.1006 -3.09961c-16.7998 -1.60059 -27.5 -2.5 -32 -2.7002c-4.59961 -0.200195 -8 -0.5 -10.2998 -0.799805
c-2.59961 -0.400391 -4.5 -1.2002 -5.7998 -2.30078c-1.2002 -1 -2.2002 -2.59961 -2.7998 -4.5c-0.600586 -1.7998 -0.900391 -4.7998 -0.900391 -9.09961v-21.5996h89.0996c2.80078 0 5.30078 -1 7.60059 -3c2.2002 -1.90039 3.39941 -4.7002 3.59961 -8.5
c0.200195 -3.80078 -0.899414 -6.5 -3.2002 -8.5c-2.5 -2.10059 -5.09961 -3.10059 -8 -3.10059h-23.3994v-117.6c0 -2.60059 -1.10059 -5 -3.5 -7.5c-2.2002 -2.2002 -5.2002 -3.2998 -9.2002 -3.2998h-1.09961c-4.2002 0.0996094 -7.2002 1.2998 -9.2002 3.5zM183.6 110
c1.60059 1.7002 2.40039 4.2998 2 8.2002v45.0996l-2.7998 -1.2998c-13.2002 -6 -18.7002 -7.2002 -21 -7.2002h-0.299805c-3 0.200195 -5.7002 1.40039 -8.2002 3.7002c-2.39941 2.2002 -3.5 5 -3.5 8.5c0 4.59961 0.900391 6.7998 1.7002 7.7998
c1.2002 1.60059 2.59961 2.90039 4.2998 3.90039c1.2002 0.700195 7.10059 3 28.4004 9.89941l1.39941 0.5v40.7002h-27.2998c-3.2002 0 -5.89941 1 -8.2998 3.10059c-2.2998 2 -3.40039 4.69922 -3.5 8.39941s0.900391 6.5 3 8.5
c2.2002 2.10059 4.7998 3.10059 8.2002 3.10059h28v38.6992c0 3.30078 1.09961 6 3.39941 8.10059c2.40039 2.2002 5.10059 3.39941 8.30078 3.7002h0.899414c2.7002 0 5.2998 -1.10059 7.7002 -3.30078c2.7002 -2.39941 4 -5.19922 4 -8.5v-38.6992h14.4004
c2.89941 0 5.39941 -1 7.69922 -3.2002c2.30078 -2.10059 3.40039 -4.7998 3.40039 -8.2998c-0.0996094 -3.30078 -1.2002 -6 -3.5 -8.2002s-4.7002 -3.2998 -7.5 -3.2998h-14.4004v-32l2.80078 1.09961c3.39941 1.40039 6.09961 2.09961 8.09961 2.2998h0.900391
c3.69922 0 6.09961 -1.2002 7.2998 -3.5c1.59961 -3 2.39941 -5.7998 2.39941 -8.39941c0 -2.5 -0.399414 -4.7002 -1.39941 -6.30078c-1 -1.59961 -2.60059 -3.19922 -4.7998 -4.5c-2.40039 -1.5 -7.10059 -3.5 -14 -6.19922l-1.30078 -0.5v-69.7002
c0 -3.7998 -1.39941 -8.40039 -4 -13.6006c-2.39941 -4.7998 -9.69922 -7.39941 -21.5996 -7.7998c-1 -0.0996094 -1.7998 -0.0996094 -2.7002 -0.0996094c-7.2002 0 -12.0996 1.5 -14.5996 4.2998c-2.90039 3.2002 -4.2002 6.90039 -4.10059 11.2998
c0.100586 3.7002 1.10059 6.60059 2.90039 8.5c1.7998 1.90039 3.7998 2.90039 5.90039 3l4.69922 -0.399414h0.100586c2.89941 0 5.2998 0.899414 6.89941 2.59961zM53.5 -32c-11.7998 0 -21.4004 9.59961 -21.4004 21.2998v405.4
c0 11.7002 9.60059 21.2998 21.3008 21.2998h416.399c5.5 0 10.1006 -4.5 10.1006 -10.0996c0 -5.60059 -4.5 -10.1006 -10.1006 -10.1006h-405.399c-6.60059 -0.200195 -12 -5.5 -12.1006 -12.0996v-383.7c0.200195 -6.7002 5.60059 -12.0996 12.4004 -12.0996h382.6
c6.90039 0 12.5 5.59961 12.5 12.3994v337c0 5.5 4.5 10.1006 10.1006 10.1006c5.5 0 10 -4.5 10.1992 -10v-348c0 -11.7002 -9.59961 -21.3008 -21.3994 -21.3008h-405.2v-0.0996094z" />
    <glyph glyph-name="icon-scan" unicode="&#x2824;" 
d="M42.2002 249.3c-5.60059 0 -10.2002 4.60059 -10.2002 10.2002v135c0 11.9004 9.59961 21.5 21.5 21.5h146.2c5.7002 0 10.2998 -4.59961 10.2998 -10.2002c0 -5.59961 -4.59961 -10.2002 -10.2002 -10.2002h-135c-6.7998 0 -12.2998 -5.5 -12.2998 -12.2998v-123.8
c0 -5.59961 -4.59961 -10.2002 -10.2998 -10.2002zM52.4004 -32c-11.4004 0.599609 -20.4004 10 -20.4004 21.4004v135.1c0 5.59961 4.59961 10.2002 10.2002 10.2002c5.59961 0 10.2002 -4.60059 10.2002 -10.2002v-123.8c0 -6.7998 5.5 -12.2998 12.2998 -12.2998h135
c5.59961 0 10.2002 -4.60059 10.2002 -10.2002c0 -5.7002 -4.60059 -10.2002 -10.2002 -10.2002h-147.3v0zM469.7 249.3c-5.60059 0 -10.2002 4.60059 -10.2002 10.2002v123.8c0 6.7998 -5.5 12.2998 -12.2998 12.2998h-135c-5.60059 0 -10.2002 4.60059 -10.2002 10.2002
c0 5.60059 4.59961 10.2002 10.2002 10.2002h146.3c11.9004 0 21.5 -9.59961 21.5 -21.5v-135c-0.0996094 -5.59961 -4.7002 -10.2002 -10.2998 -10.2002zM312.2 -32c-5.60059 0 -10.2002 4.59961 -10.2002 10.2002c0 5.59961 4.59961 10.2002 10.2002 10.2002h135
c6.7998 0 12.2998 5.5 12.2998 12.2998v123.8c0 5.59961 4.59961 10.2002 10.2002 10.2002c5.59961 0 10.2002 -4.60059 10.2002 -10.2002v-135.1c0 -11.4004 -9 -20.8008 -20.4004 -21.4004h-147.3v0zM42.2002 181.8c-5.60059 0 -10.2002 4.60059 -10.2002 10.2002
s4.59961 10.2002 10.2002 10.2002h427.399c5.60059 0 10.2002 -4.60059 10.2002 -10.2002s-4.59961 -10.2002 -10.2002 -10.2002h-427.399z" />
    <glyph glyph-name="icon-search" unicode="&#x2825;" 
d="M464.8 -32c-2.7002 0 -5.2002 1 -7.09961 2.90039l-131.3 131.199l-1.30078 0.100586c-31.2998 -25.5 -70.7998 -39.6006 -111 -39.6006c-97.5996 0 -177 79.3008 -177 176.7c0 47.2002 18.4004 91.6006 51.8008 125c33.2998 33.2998 77.7998 51.7002 125.1 51.7002
s91.7998 -18.4004 125.2 -51.7998c33.3994 -33.4004 51.7998 -77.7998 51.7002 -125.101c0 -25.8994 -5.7002 -51 -16.8008 -74.6992l-0.0996094 -0.400391l0.0996094 0.299805c-0.0996094 -0.299805 -1.09961 -2.2002 -2.19922 -3.2998
c-1.40039 -1.5 -4.10059 -2.5 -7 -2.5c-2.90039 0 -5.5 0.900391 -7.30078 2.59961c-5 4.5 -1.89941 11.5 -1.7998 11.8008c9.90039 21.3994 15 43.7998 15 66.5c0 86.2998 -70.3994 156.5 -156.899 156.5c-86.4004 0 -156.7 -70.2002 -156.7 -156.5
c0 -86.3008 70.2998 -156.5 156.8 -156.5c38.5996 0 75.7998 14.3994 104.8 40.3994c0.100586 0.100586 1.10059 0.900391 2 1.60059c1.7998 1.09961 3.7002 1.7998 5.7002 1.7998c2.5 0 4.90039 -1 6.7998 -3l138.7 -138.4c1.90039 -1.89941 3 -4.5 2.90039 -7.2002
c0 -2.69922 -1.10059 -5.09961 -3 -7c-1.80078 -2.09961 -4.40039 -3.09961 -7.10059 -3.09961z" />
    <glyph glyph-name="icon-send" unicode="&#x2826;" 
d="M313.6 -32c-2.59961 0 -5.19922 1 -7.09961 2.90039l-109.1 108.3l-46.7002 -46.2002h59.8994c5.60059 0 10.1006 -4.5 10.1006 -10.0996c0 -5.60059 -4.5 -10.1006 -10.1006 -10.1006h-84.3994c-4.10059 0 -7.7998 2.5 -9.2998 6.2002s-0.700195 8.09961 2.19922 11
l65.4004 64.7998c7.09961 7 18.7002 7 25.7998 0l99.2002 -98.5l143.5 392.7l-392.6 -143.1l109.6 -109.801l58.9004 59.1006c3.89941 3.89941 10.2998 4 14.2998 0c3.89941 -3.90039 4 -10.2998 0 -14.2998l-66.1006 -66.2002c-1.89941 -1.90039 -4.5 -3 -7.09961 -3
s-5.2002 1.09961 -7.09961 3l-128 128.1c-2.40039 2.40039 -3.5 6 -2.7002 9.2998c0.700195 3.40039 3.2002 6.10059 6.39941 7.30078l427.801 156c3.69922 1.2998 7.7998 0.399414 10.5996 -2.30078c2.7998 -2.7998 3.7002 -6.89941 2.2998 -10.5996l-156.2 -427.9
c-1.19922 -3.19922 -3.89941 -5.59961 -7.2998 -6.39941c-0.700195 -0.100586 -1.5 -0.200195 -2.2002 -0.200195z" />
    <glyph glyph-name="icon-share" unicode="&#x2827;" 
d="M396.1 -32c-22.5996 0 -43.6992 12.2002 -55 31.7002c-9.59961 16.5996 -11.0996 36.5 -4.19922 54.5l-170.601 98.5996c-11.8994 -15.7002 -30.7002 -25 -50.5 -25c-11.0996 0 -22 2.90039 -31.5996 8.5c-30.2998 17.4004 -40.7002 56.2998 -23.2002 86.6006
c11.2998 19.5 32.4004 31.6992 54.9004 31.6992c11.0996 0 22 -3 31.6992 -8.59961c6.80078 -3.90039 12.8008 -9 17.8008 -15.4004l171.6 99.2002c-7 18 -5.5 37.7998 4.2002 54.5c11.2998 19.6006 32.2998 31.7002 54.8994 31.7002c11.1006 0 22 -2.90039 31.7002 -8.5
c30.2998 -17.4004 40.7002 -56.2998 23.2002 -86.5996c-11.2998 -19.5 -32.4004 -31.7002 -54.9004 -31.7002c-11.0996 0 -22 3 -31.5996 8.59961c-7.09961 4.10059 -13.0996 9.2998 -18 15.5l-171.6 -98.8994c5.59961 -14.3008 5.7998 -30.2002 0.5 -44.8008l171 -98.6992
c5 6.2998 11.0996 11.5 18 15.5996c9.59961 5.59961 20.5 8.5 31.5996 8.5c22.5996 0 43.7002 -12.2002 55 -31.7002c8.5 -14.7002 10.7002 -31.7002 6.2998 -48.0996c-4.39941 -16.4004 -14.8994 -30 -29.5996 -38.5c-9.60059 -5.7002 -20.5 -8.7002 -31.6006 -8.7002v0z
M396.1 75.9004c-7.7998 0 -15.3994 -2.10059 -22.1992 -6c-10.3008 -5.90039 -17.6006 -15.4004 -20.7002 -26.9004c-3.10059 -11.5 -1.5 -23.5 4.39941 -33.7998c7.90039 -13.7002 22.6006 -22.2002 38.5 -22.2002c7.80078 0 15.4004 2.09961 22.2002 6
c21.2002 12.2002 28.5 39.4004 16.2998 60.7002c-7.89941 13.7002 -22.6992 22.2002 -38.5 22.2002zM116 235.7c-15.9004 0 -30.7002 -8.5 -38.5996 -22.2002c-5.90039 -10.2998 -7.5 -22.2002 -4.40039 -33.7002s10.4004 -21.0996 20.7002 -27
c6.7998 -3.89941 14.3994 -6 22.2002 -6c15.8994 0 30.5996 8.5 38.5 22.2998c5.89941 10.3008 7.5 22.2002 4.39941 33.7002c-3.09961 11.5 -10.3994 21.1006 -20.7002 27c-6.69922 3.90039 -14.3994 5.90039 -22.0996 5.90039zM396.1 397.2
c-15.8994 0 -30.6992 -8.5 -38.5996 -22.2002c-12.2002 -21.2998 -4.90039 -48.5 16.2998 -60.7002c6.7002 -3.89941 14.4004 -5.89941 22.1006 -5.89941c15.8994 0 30.6992 8.5 38.5996 22.1992c5.90039 10.3008 7.5 22.2002 4.40039 33.7002
c-3.10059 11.5 -10.4004 21.1006 -20.7002 27c-6.7002 3.90039 -14.2998 5.90039 -22.1006 5.90039z" />
    <glyph glyph-name="icon-shop" unicode="&#x2828;" 
d="M440 -31.5h-368c-11 0 -20 9 -20 19.9004v154.699c0 5.30078 4 10 9.2998 10.3008c5.7998 0.399414 10.7002 -4.2002 10.7002 -10v-145c0 -5.5 4.5 -10 10 -10h348c5.5 0 10 4.5 10 10v144.699c0 5.30078 4 10 9.2998 10.3008
c5.7998 0.399414 10.7002 -4.2002 10.7002 -10v-155c0 -10.9004 -9 -19.9004 -20 -19.9004zM479.7 246.6c0.0996094 -0.5 0.200195 -1.09961 0.299805 -1.69922c0 -27.5 -22.4004 -49.8008 -50 -49.8008h-2.7998c-17.6006 0 -33.2002 8.5 -42.7998 21.8008
c-9.60059 -13.2002 -25.2002 -21.8008 -42.8008 -21.8008v0c-17.5996 0 -33.1992 8.5 -42.7998 21.8008c-9.59961 -13.2002 -25.2002 -21.8008 -42.7998 -21.8008v0c-17.5996 0 -33.2002 8.5 -42.7998 21.8008c-9.60059 -13.2002 -25.2002 -21.8008 -42.7998 -21.8008v0
c-17.6006 0 -33.2002 8.5 -42.8008 21.8008c-9.59961 -13.2002 -25.1992 -21.8008 -42.7998 -21.8008h-2.7998c-27.5 0 -49.9004 22.3008 -50 49.7002c0 0.700195 0.0996094 1.40039 0.200195 2.10059l19.7998 113.699v25c0 16.5 13.4004 29.9004 30 29.9004h347.9
c16.5996 0 30 -13.4004 30 -29.9004v-25zM72 380.6v-11h52.5h6h79.5996h6h79.6006h6h79.5996h6h52.6006v11c0 8.2002 -6.7002 14.9004 -15 14.9004h-337.9c-8.2998 0 -15 -6.59961 -15 -14.9004zM429.9 215c16.0996 0 29.3994 12.7998 29.8994 28.7998
c0.100586 0.200195 0 0.400391 0 0.600586l-18.2998 105.3h-0.5h-46.5996h-20h-65.6006h-20h-65.5996h-20h-65.6006h-20h-45.0996h-2.09961l-18.4004 -105.3v-0.600586c0.599609 -15.8994 13.7998 -28.7998 30 -28.7998h2.7002c13.8994 0 25.7002 8.5 30.5 20.5996
c2 5.10059 6.7998 8.5 12.2998 8.5s10.2998 -3.39941 12.2998 -8.5c4.7998 -12 16.7002 -20.5996 30.5 -20.5996v0c13.9004 0 25.7002 8.5 30.5 20.5996c2 5.10059 6.7998 8.5 12.2998 8.5s10.3008 -3.39941 12.3008 -8.5c4.7998 -12 16.6992 -20.5996 30.5 -20.5996v0
c13.8994 0 25.6992 8.5 30.5 20.5996c2 5.10059 6.7998 8.5 12.2998 8.5s10.2998 -3.39941 12.2998 -8.5c4.7998 -12 16.7002 -20.5996 30.5 -20.5996v0c13.9004 0 25.7002 8.5 30.5 20.5996c2 5.10059 6.7998 8.5 12.2998 8.5s10.2998 -3.39941 12.2998 -8.5
c4.80078 -12 16.7002 -20.5996 30.5 -20.5996h2.80078z" />
    <glyph glyph-name="icon-spanner" unicode="&#x2829;" 
d="M418.4 -32c-15.7002 0 -31.6006 6.09961 -43.6006 18.0996l-117.7 117.5c-60.3994 -25.2998 -131 -11.5996 -177.6 35c-48.2998 48.4004 -61.2002 122.4 -32.0996 184.301c1.39941 2.89941 4.09961 5 7.2998 5.59961s6.5 -0.400391 8.7998 -2.59961l89.7998 -85.7002
l0.200195 -0.200195c5 -5 13.2998 -5 18.4004 0l40.1992 40.2002c2.40039 2.39941 3.80078 5.7002 3.80078 9.2002s-1.30078 6.69922 -3.7002 9.09961l-89.7998 85.7002c-2.40039 2.2998 -3.5 5.59961 -3 8.89941c0.5 3.2002 2.59961 6.10059 5.59961 7.5
c61.9004 29.2002 136 16.2002 184.3 -32.0996c37.2002 -37.2002 54.1006 -90.4004 45.2998 -142.3c-0.899414 -5.40039 -6.19922 -9.2002 -11.5996 -8.2998c-5.40039 0.899414 -9.2002 6.19922 -8.2998 11.5996c7.7998 45.5 -7.10059 92.0996 -39.6006 124.7
c-38.7998 38.7998 -96.5 51.5 -147.399 33.7998l78.5996 -75.0996l0.200195 -0.200195c12.9004 -12.9004 12.9004 -34 0 -46.9004l-40.2002 -40.2002c-6.2998 -6.2998 -14.5996 -9.69922 -23.5 -9.69922c-8.7998 0 -17.0996 3.39941 -23.3994 9.59961l-79.1006 75.5996
c-18.0996 -51.1992 -5.2998 -109.199 33.6006 -148.199c42.3994 -42.4004 107.1 -53.7002 161.3 -28.1006c3.7998 1.7998 8.5 1 11.3994 -2l122.601 -122.6c16.0996 -16.1006 42.5 -16.1006 58.5996 0c16.1006 16.0996 16.1006 42.5 0 58.5996l-115.6 115.7
c-3.90039 3.90039 -3.90039 10.2998 0 14.2002c3.89941 3.89941 10.2998 3.89941 14.2002 0l115.6 -115.601c24 -24 24 -63.0996 0 -87.1992c-12 -11.9004 -27.7998 -17.9004 -43.5996 -17.9004z" />
    <glyph glyph-name="icon-speaker" unicode="&#x282a;" 
d="M270.2 16.2998c-4.40039 0 -8.7002 0.900391 -12.7998 2.7002c0 0 -0.100586 0 -0.100586 0.0996094c-1.39941 0.600586 -2.2998 1.10059 -141.8 106.9c-4.5 3.40039 -5.40039 9.90039 -2 14.4004s9.90039 5.39941 14.4004 2
c51.8994 -39.4004 129.6 -98.3008 138.6 -104.9c3.09961 -1.09961 6.5 -0.799805 9.5 1c1.7002 1 5.7002 4 5.7002 10v287.1c0 4 -1.90039 7.5 -5.2998 9.7002c-3.10059 2 -6.7002 2.40039 -10 1.2998c-8.10059 -5.89941 -72.4004 -54.5996 -115.301 -87.1992l-21.0996 -16
c-4.7002 -3.60059 -10.0996 -5.80078 -15.5996 -6.40039c-1.40039 -0.200195 -2.60059 -0.200195 -3.7002 -0.200195h-47.9004c-5.7002 0 -10.2998 -4.59961 -10.2998 -10.2998v-68.7998c0 -5.7002 4.59961 -10.2998 10.2998 -10.2998h18.1006
c5.69922 0 10.2998 -4.60059 10.2998 -10.3008c0 -5.69922 -4.60059 -10.2998 -10.2998 -10.2998h-18.1006c-17 0 -30.7998 13.7998 -30.7998 30.7998v68.8008c0 17 13.7998 30.7998 30.7998 30.7998h47.9004h1.2998h0.200195
c2.2002 0.200195 4.2002 1.39941 5.39941 2.39941l21.2002 16c116.101 88.1006 117.101 88.6006 118.5 89.2002c0 0 0.100586 0 0.100586 0.100586c9.7998 4.39941 21.1992 3.5 30.2998 -2.5c9.2002 -5.90039 14.5996 -16 14.5996 -26.9004v-287.1
c0 -11.6006 -6 -21.9004 -16 -27.8008c-5.09961 -2.7998 -10.5996 -4.2998 -16.0996 -4.2998zM363.9 113.2c-2.60059 0 -5.30078 1 -7.30078 3c-4 4 -4 10.5 0 14.5c16.4004 16.3994 25.4004 38.2002 25.4004 61.2998s-9 44.9004 -25.4004 61.2998c-4 4 -4 10.5 0 14.5
s10.5 4 14.5 0c20.3008 -20.2998 31.4004 -47.2002 31.4004 -75.7998s-11.2002 -55.5996 -31.4004 -75.7998c-2 -2 -4.59961 -3 -7.19922 -3zM419.7 61.0996c-2.60059 0 -5.2998 1 -7.2998 3c-4 4 -4 10.5 0 14.5c30.2998 30.3008 47 70.6006 47 113.4
s-16.7002 83.0996 -47 113.4c-4 4 -4 10.5 0 14.5s10.5 4 14.5 0c34.1992 -34.2002 53 -79.6006 53 -127.9s-18.8008 -93.7002 -53 -127.9c-1.90039 -2 -4.60059 -3 -7.2002 -3z" />
    <glyph glyph-name="icon-star" unicode="&#x282b;" 
d="M135.6 -31.2998c-5.69922 0 -11.2998 1.7002 -16.1992 5.2002c-8.90039 6.2998 -13.3008 16.7998 -11.6006 27.5996l20 122.3c0.5 2.90039 -0.5 6 -2.59961 8.10059l-85.2002 87.2998c-7.40039 7.59961 -9.90039 18.5996 -6.59961 28.5996
c3.39941 10.1006 12 17.2998 22.5 18.9004l116.199 17.7998c3.10059 0.5 5.80078 2.5 7.10059 5.2998l51.2998 109.3c4.7002 10 14.5 16.2002 25.5 16.2002s20.7998 -6.2002 25.5 -16.2002l51.2998 -109.3c1.2998 -2.7998 4 -4.7998 7.10059 -5.2998l116.199 -17.7002
c10.5 -1.59961 19.1006 -8.89941 22.5 -18.8994c3.40039 -10.1006 0.900391 -21 -6.59961 -28.6006l-85.2002 -87.2998c-2.09961 -2.09961 -3 -5.09961 -2.5 -8.09961l17.5 -107.2c0.799805 -5.10059 -2.59961 -9.90039 -7.7998 -10.7998
c-5.09961 -0.800781 -9.90039 2.59961 -10.7998 7.7998l-17.5 107.2c-1.40039 8.7998 1.39941 17.7998 7.59961 24.1992l85.2002 87.4004c2.5 2.59961 3.2998 6.09961 2.2002 9.5c-1.10059 3.40039 -3.90039 5.7998 -7.5 6.2998l-116.2 17.7002
c-9.2998 1.40039 -17.2998 7.40039 -21.2998 15.9004l-51.2002 109.199c-2.40039 5 -7.09961 5.40039 -8.5 5.40039s-6.2002 -0.400391 -8.5 -5.40039l-51.2998 -109.3c-4 -8.5 -11.9004 -14.5 -21.2998 -15.8994l-116.101 -17.7002
c-3.5 -0.5 -6.39941 -2.90039 -7.5 -6.2998c-1.09961 -3.40039 -0.299805 -7 2.2002 -9.5l85.2002 -87.4004c6.2002 -6.40039 9.09961 -15.4004 7.59961 -24.2002l-20 -122.3c-0.599609 -3.59961 0.900391 -7.09961 3.90039 -9.2002c3 -2.09961 6.7002 -2.2998 10 -0.5
l102.1 56.5c8.5 4.7002 18.7002 4.7002 27.2998 0l102.101 -56.5c4.5 -2.5 6.2002 -8.2002 3.7002 -12.7998c-2.5 -4.5 -8.2002 -6.2002 -12.8008 -3.7002l-102.1 56.5c-2.7998 1.60059 -6.2998 1.60059 -9.09961 0l-102.101 -56.5
c-4.2998 -2.39941 -9 -3.59961 -13.7002 -3.59961z" />
    <glyph glyph-name="icon-tags" unicode="&#x282c;" 
d="M297.5 243.7c-12.2002 0 -23.7002 4.7002 -32.4004 13.3994c-17.8994 17.9004 -17.8994 46.9004 0 64.7002c8.7002 8.7002 20.1006 13.4004 32.4004 13.4004c12.2002 0 23.7002 -4.7002 32.4004 -13.4004c17.8994 -17.8994 17.8994 -46.8994 0 -64.7002
c-8.7002 -8.69922 -20.2002 -13.3994 -32.4004 -13.3994zM297.6 315.4c-6.89941 0 -13.5 -2.80078 -18.3994 -7.7002c-4.90039 -4.90039 -7.7002 -11.5 -7.7002 -18.5c0 -6.90039 2.7998 -13.4004 7.7002 -18.2998c4.89941 -4.90039 11.3994 -7.7002 18.2998 -7.7002
s13.5 2.7998 18.4004 7.7002c4.89941 4.7998 7.69922 11.2998 7.69922 18.2998s-2.69922 13.5 -7.69922 18.5c-4.80078 5 -11.3008 7.7002 -18.3008 7.7002zM188.9 26.2998c-5 0 -9.80078 2 -13.3008 5.5l-135.8 136c-3.59961 3.60059 -5.5 8.2998 -5.5 13.2998
s2 9.80078 5.5 13.3008l191.8 191.699c1.80078 1.80078 4.2002 2.80078 7 2.80078h0.900391h143.4l24.2998 24.2998c1.89941 1.89941 4.2998 2.89941 7 2.89941s5.09961 -1 6.89941 -2.89941c3.80078 -3.7998 3.80078 -10.1006 0 -13.9004l-24.2998 -24.2998v-143.2
c0.400391 -3.09961 -0.599609 -5.89941 -2.7002 -8l-191.899 -192c-3.60059 -3.5 -8.2998 -5.5 -13.2998 -5.5zM188.9 46.4004l188.199 188.1v134.6h-134.6l-188.2 -188.1zM291.9 -32c-4.90039 0 -9.7002 2 -13.2002 5.40039l-45.7002 45.6992
c-3.7998 3.80078 -3.7998 10.1006 0 13.9004c1.90039 1.90039 4.2998 2.90039 6.90039 2.90039c2.59961 0 5.09961 -1 6.89941 -2.90039l44.9004 -44.9004l166.3 166.101v152.399h-35c-5.2998 0 -9.90039 4.5 -9.90039 9.90039s4.40039 9.90039 9.90039 9.90039h44.5
c2.7998 0 5.2002 -1.10059 7.09961 -3.10059c2 -2 3.2002 -4.39941 3.30078 -7v-166.2c0 -2.7998 -1.30078 -5.2998 -3.5 -7.2998l-169.301 -169.5c-3.59961 -3.39941 -8.2998 -5.2998 -13.1992 -5.2998v0z" />
    <glyph glyph-name="icon-trash" unicode="&#x282d;" 
d="M199.4 46.7002c-5.7002 0 -10.3008 4.59961 -10.3008 10.2998v180c0 5.7002 4.60059 10.2998 10.3008 10.2998c5.69922 0 10.2998 -4.59961 10.2998 -10.2998v-180c0 -5.7002 -4.60059 -10.2998 -10.2998 -10.2998zM311.9 46.7002
c-5.7002 0 -10.3008 4.59961 -10.3008 10.2998v180c0 5.7002 4.60059 10.2998 10.3008 10.2998c5.69922 0 10.2998 -4.59961 10.2998 -10.2998v-180c0 -5.7002 -4.60059 -10.2998 -10.2998 -10.2998zM109.7 -32c-11.7998 0 -21.4004 9.59961 -21.4004 21.5v337.4l-1 1h-45
c-5.7002 0 -10.2998 4.59961 -10.2998 10.2998s4.59961 10.2998 10.2998 10.2998h135.3l1 1v45.4004c0.200195 11.5996 9.90039 21.0996 21.6006 21.0996h112.1c10.7002 0 19.7998 -7.90039 21.2998 -18.4004v-48.0996l1 -1h135.2c2.7998 0 5.40039 -1.09961 7.2998 -3
c1.90039 -1.90039 2.90039 -4.40039 2.90039 -7.09961c0 -5.7002 -4.59961 -10.3008 -10.2998 -10.3008h-349.4c-6.59961 -0.299805 -11.7002 -5.69922 -11.7002 -12.1992v-315.2c0 -5.5 6.40039 -12.2002 11.7002 -12.2002h271.3
c6.60059 0.299805 11.7002 5.7002 11.7002 12.2002v236.3c0 5.7002 4.60059 10.2998 10.2998 10.2998c5.7002 0 10.3008 -4.59961 10.3008 -10.2998v-247.6c-0.100586 -11.8008 -9.7002 -21.4004 -21.5 -21.4004h-292.7zM210.4 395.5
c-5.80078 -0.299805 -10.4004 -4.59961 -11.3008 -10.2998v-0.200195v-35.5996l1 -1h111.9l1 1v35c-0.599609 6.09961 -5.2998 10.6992 -11.4004 11.0996h-91.1992v0z" />
    <glyph glyph-name="icon-trunk" unicode="&#x282e;" 
d="M471 192.7c5.7998 -7.2002 9 -16.2002 9.09961 -25.5v-97.2998c0 -5.60059 -4.59961 -10.2002 -10.1992 -10.2002c-5.60059 0 -10.2002 4.59961 -10.2002 10.2002v97.2998c0 4.7002 -1.5 9.09961 -4.40039 12.7002l-0.0996094 0.0996094l-68.7002 86.9004
c-3.7998 4.69922 -9.59961 7.5 -15.7998 7.5h-65.7002c-11.2998 0 -20.4004 9.19922 -20.4004 20.3994v39.7002c0 5.59961 -4.59961 10.2002 -10.1992 10.2002h-211.801c-5.59961 0 -10.1992 -4.60059 -10.1992 -10.2002v-264.6
c0 -5.60059 -4.60059 -10.2002 -10.2002 -10.2002c-5.60059 0 -10.2002 4.59961 -10.2002 10.2002v264.6c0 16.7998 13.7002 30.5 30.5 30.5h211.8c16.7998 0 30.5 -13.7002 30.5 -30.5v-39.7002h65.7002c12.5 0 24 -5.5 31.7998 -15.2002zM382.5 120.8
c28 0 50.9004 -22.7998 50.9004 -50.8994c0 -28.1006 -22.8008 -50.9004 -50.9004 -50.9004c-24.5996 0 -45.2002 17.5996 -49.9004 40.7998c-0.299805 -0.0996094 -0.699219 -0.0996094 -1 -0.0996094h-150.5c-0.299805 0 -0.699219 0.0996094 -1 0.0996094
c-4.69922 -23.2998 -25.2998 -40.7998 -49.8994 -40.7998c-28.1006 0 -50.9004 22.7998 -50.9004 50.9004c0 28.0996 22.7998 50.8994 50.9004 50.8994c24.5996 0 45.2002 -17.5996 49.8994 -40.7998c0.300781 0.0996094 0.700195 0.0996094 1 0.0996094h150.5
c0.300781 0 0.700195 -0.0996094 1 -0.0996094c4.7002 23.2998 25.3008 40.7998 49.9004 40.7998zM130.2 39.4004c16.8994 0 30.5996 13.5996 30.5 30.5c0 16.7998 -13.7002 30.5 -30.5 30.5s-30.5 -13.7002 -30.5 -30.5c0 -16.8008 13.7002 -30.5 30.5 -30.5z
M382.5 39.4004c16.7998 0 30.5 13.6992 30.5 30.5c0 16.7998 -13.7002 30.5 -30.5 30.5s-30.5 -13.7002 -30.5 -30.5c0 -16.8008 13.7002 -30.5 30.5 -30.5zM168.5 296.8c5.59961 0 10.2002 -4.5 10.2002 -10.2002v-104.8h79.5c5.59961 0 10.2002 -4.59961 10.2002 -10.2002
c0 -5.59961 -4.60059 -10.1992 -10.2002 -10.1992h-79.5c-11.2998 0 -20.4004 9.19922 -20.4004 20.3994v104.8c0 5.60059 4.60059 10.2002 10.2002 10.2002z" />
    <glyph glyph-name="icon-user" unicode="&#x282f;" 
d="M255.9 416c69.8994 0 126.399 -56.7002 126.399 -126.6c0 -69.9004 -56.5996 -126.601 -126.5 -126.601v0c-104.899 -1.2998 -185 -82.8994 -185 -185c0 -5.39941 -4.2998 -9.7002 -9.7002 -9.7002c-5.39941 0 -9.69922 4.30078 -9.69922 9.7002
c0 94.2998 63.8994 173.5 150.899 197.101c-43.2002 20.1992 -73 63.7998 -73 114.5c0 69.8994 56.7998 126.6 126.601 126.6zM255.9 182.3c59.1992 0 107.199 47.7998 107.199 107.101c0 59.2998 -48.0996 107.199 -107.199 107.199
c-59.1006 0 -107.2 -47.7998 -107.2 -107.1s48 -107.2 107.2 -107.2zM384.8 136.5c46.1006 -37.4004 75.6006 -94.5996 75.7998 -158.7c0 -5.39941 -4.2998 -9.7002 -9.69922 -9.7002c-5.40039 0 -9.7002 4.30078 -9.7002 9.7002c0 58.6006 -27.2998 110.7 -69.7002 144.601
v0c-1.7998 1.59961 -2.90039 4.19922 -2.90039 6.89941c0 5.2998 4.2002 9.7002 9.7002 9.7002c2.5 0 4.7002 -1 6.5 -2.5v0z" />
    <glyph glyph-name="icon-wallet" unicode="&#x2830;" 
d="M403.5 -32h-351.5c-11 0 -20 9 -20 20v408c0 11 9 20 20 20h351.5c33.4004 0 60.5 -27.0996 60.5 -60.5v-91.7998c0 -5.2998 -4 -10 -9.2998 -10.2998c-5.7998 -0.400391 -10.7002 4.19922 -10.7002 10v82.0996c0 27.9004 -22.5996 50.5 -50.5 50.5h-331.5
c-5.5 0 -10 -4.5 -10 -10v-388c0 -5.5 4.5 -10 10 -10h331.5c27.9004 0 50.5 22.5996 50.5 50.5v81.7998c0 5.2998 4 10 9.2998 10.2998c5.7998 0.400391 10.7002 -4.19922 10.7002 -10v-92.0996c0 -33.4004 -27.0996 -60.5 -60.5 -60.5zM470 146.2h-180
c-25.4004 0 -46 20.5996 -46 46c0 25.3994 20.5996 46 46 46h180c5.5 0 10 -4.5 10 -10v-72c0 -5.60059 -4.5 -10 -10 -10zM290 218.2c-14.2998 0 -26 -11.7002 -26 -26s11.7002 -26 26 -26h170v52h-170v0zM281.5 191.7c0 8.28418 6.71582 15 15 15s15 -6.71582 15 -15
s-6.71582 -15 -15 -15s-15 6.71582 -15 15z" />
  </font>
</defs>
</svg>
