<svg xmlns="http://www.w3.org/2000/svg" width="383.2" height="777.6" viewBox="-63 645 383.2 777.6"><switch><g><path fill="#D7C5B1" d="M320.2 823.4v-47.9l-1.4-2.2h-3V825h3z"/><path fill="#FEEDD8" d="M320.2 775.5v47.8l-1.5 1.7v-51.8l1.5 2.3z"/><path fill="#D7C5B1" d="M-61.5 734.7c-.6.7-1.1 1.1-1.5 1.5v23.5l1.5 1.5h3v-26.5h-3z"/><path fill="#FEEDD8" d="M-61.5 761.2l-1.5-1.5v-23.5c.4-.4.9-.8 1.5-1.5v26.5z"/><path fill="#D7C5B1" d="M-61.5 775.2c-.6.7-1.1 1.1-1.5 1.5v35l1.5 1.5h3v-38h-3z"/><path fill="#FEEDD8" d="M-61.5 813.2l-1.5-1.5v-35c.4-.4.9-.8 1.5-1.5v38z"/><path fill="#D7C5B1" d="M-61.5 820.2c-.6.7-1.1 1.1-1.5 1.5v35l1.5 1.5h3v-38h-3z"/><path fill="#FEEDD8" d="M-61.5 858.2l-1.5-1.5v-35c.4-.4.9-.8 1.5-1.5v38zm362.4-196.8c-10.6-10.6-24.6-16.4-39.6-16.4h-265c-15 0-29 5.8-39.7 16.4-10.5 10.6-16.4 24.7-16.4 39.7v665c0 15 5.9 29.1 16.4 39.6 10.6 10.6 24.6 16.4 39.7 16.4h264.9c15 0 29-5.8 39.6-16.4s16.4-24.7 16.4-39.6v-665c0-15-5.8-29.1-16.3-39.7z"/><path fill="#D7C5B1" d="M261.2 649H-3.7c-28.5 0-51.5 23.1-51.5 51.5v665c0 28.4 23.1 51.5 51.5 51.5h264.9c28.5 0 51.5-23.1 51.5-51.5v-665c.1-28.3-23.1-51.5-51.5-51.5z"/><path fill="#F3F3F3" d="M311.2 1365.5c0 27.6-22.4 50-50 50H-3.7c-27.6 0-50-22.4-50-50v-665c0-27.6 22.4-50 50-50h264.9c27.6 0 50 22.4 50 50v665z"/><path fill="#FFF" d="M-31 749.7h320v568H-31v-568z"/><path fill="#4C4C4C" d="M289 749.7v568H-31v-568h320m0-2H-31c-1.1 0-2 .9-2 2v568c0 1.1.9 2 2 2h320c1.1 0 2-.9 2-2v-568c0-1.1-.9-2-2-2z"/><path fill="#D7C5B1" d="M129 1330.9c-19.4 0-35 15.7-35 35s15.6 35 35 35 35-15.7 35-35-15.7-35-35-35zm0 66c-17.1 0-31-13.9-31-31s13.9-31 31-31 31 13.9 31 31-13.8 31-31 31z"/><path fill="#F2F2F2" d="M161.6 700.8c0 4.1-3.4 7.5-7.5 7.5h-55c-4.1 0-7.5-3.4-7.5-7.5 0-4.2 3.4-7.5 7.5-7.5h55c4.1 0 7.5 3.4 7.5 7.5z"/><path fill="#E5E5E5" d="M161.6 700.3c0 4.1-3.4 7.5-7.5 7.5h-55c-4.1 0-7.5-3.4-7.5-7.5 0-4.2 3.4-7.5 7.5-7.5h55c4.1 0 7.5 3.4 7.5 7.5z"/><path fill="#010101" d="M154.1 696.3h-55c-2.2 0-4 1.8-4 4s1.8 4 4 4h55c.9 0 1.6-.3 2.3-.8 1-.8 1.7-1.9 1.7-3.2 0-2.2-1.7-4-4-4z"/><circle fill="#231F20" cx="126.6" cy="670.5" r="7.1"/><circle fill="#010101" cx="126.6" cy="670.5" r="3"/><circle fill="#231F20" cx="126.6" cy="670.5" r="2.1"/><ellipse fill="#FFF" cx="126.6" cy="669.5" rx=".9" ry=".6"/><path fill="#231F20" d="M73.5 695.8c2.5 0 4.5 2 4.5 4.5s-2 4.5-4.5 4.5-4.5-2-4.5-4.5 2-4.5 4.5-4.5z"/><linearGradient id="a" gradientUnits="userSpaceOnUse" x1="-59.8" y1="67.5" x2="-55.207" y2="67.5" gradientTransform="matrix(1 0 0 -1 0 778)"><stop offset="0" stop-color="#d1d1d1" stop-opacity=".5"/><stop offset=".234" stop-color="#e0e0e0"/><stop offset="1" stop-color="#fff"/></linearGradient><path fill="url(#a)" d="M-59.8 706.5h4.6v8h-4.6z"/><linearGradient id="b" gradientUnits="userSpaceOnUse" x1="-59.8" y1="-578.9" x2="-55.2" y2="-578.9" gradientTransform="matrix(1 0 0 -1 0 778)"><stop offset="0" stop-color="#d1d1d1" stop-opacity=".5"/><stop offset=".234" stop-color="#e0e0e0"/><stop offset="1" stop-color="#fff"/></linearGradient><path fill="url(#b)" d="M-59.8 1352.9h4.6v8h-4.6z"/><linearGradient id="c" gradientUnits="userSpaceOnUse" x1="312.7" y1="67.5" x2="317.2" y2="67.5" gradientTransform="matrix(1 0 0 -1 0 778)"><stop offset="0" stop-color="#fff"/><stop offset=".795" stop-color="#e0e0e0"/><stop offset="1" stop-color="#d1d1d1" stop-opacity=".5"/></linearGradient><path fill="url(#c)" d="M312.7 706.5h4.5v8h-4.5z"/><linearGradient id="d" gradientUnits="userSpaceOnUse" x1="312.7" y1="-578.9" x2="317.2" y2="-578.9" gradientTransform="matrix(1 0 0 -1 0 778)"><stop offset="0" stop-color="#fff"/><stop offset=".796" stop-color="#e0e0e0"/><stop offset="1" stop-color="#d1d1d1" stop-opacity=".5"/></linearGradient><path fill="url(#d)" d="M312.7 1352.9h4.5v8h-4.5z"/></g></switch></svg>